<svg xmlns="http://www.w3.org/2000/svg" version="1.0" width="1000.000000" height="142.000000" preserveAspectRatio="xMidYMid meet"><rect id="backgroundrect" width="100%" height="100%" x="0" y="0" fill="none" stroke="none"/>
<metadata>
Created by potrace 1.15, written by Peter Selinger 2001-2017
</metadata>

<g class="currentLayer" style=""><title>Layer 1</title><g transform="translate(0,142) scale(0.10000000149011612,-0.10000000149011612) " fill="#ffffff" stroke="none" id="svg_1" class="selected" fill-opacity="1">
<path d="M192 827 c-78 -325 -142 -595 -142 -599 0 -5 81 -8 179 -8 l179 0 57 236 57 235 -92 362 c-51 199 -93 363 -94 364 -1 2 -66 -264 -144 -590z" id="svg_2" fill="#ffffff" fill-opacity="1"/>
<path d="M887 1283 c-3 -5 -21 -79 -42 -166 l-37 -158 51 -212 c28 -117 51 -215 51 -219 0 -5 -79 -8 -175 -8 -96 0 -175 -3 -175 -7 0 -5 15 -66 33 -138 l33 -130 177 -3 c164 -2 177 -1 177 15 0 18 -16 91 -26 126 -4 14 1 17 35 17 38 0 41 2 51 38 5 20 13 54 16 74 4 21 10 36 14 33 3 -2 15 -40 25 -85 l18 -80 180 0 180 0 -7 37 c-3 21 -9 48 -12 61 -6 20 -3 22 30 22 20 0 36 3 36 7 0 3 34 147 75 319 41 172 75 315 75 318 0 4 -80 5 -177 4 l-177 -3 -8 -32 c-6 -24 5 -84 47 -258 30 -125 55 -233 55 -241 0 -11 -31 -14 -169 -14 -153 0 -170 2 -175 18 -30 98 -167 628 -169 655 -1 19 -4 21 -10 10z" id="svg_3" fill="#ffffff" fill-opacity="1"/>
<path d="M1811 782 c-52 -202 -97 -375 -99 -385 -4 -16 5 -17 128 -15 l133 3 25 93 25 92 122 0 123 0 8 -92 9 -93 133 -3 133 -3 -6 58 c-4 32 -21 196 -39 365 -26 257 -35 310 -50 327 -18 20 -29 21 -285 21 l-266 0 -94 -368z m403 250 c5 -9 36 -288 36 -328 0 -24 -1 -24 -101 -24 -79 0 -100 3 -96 13 3 7 24 88 47 180 l43 167 33 0 c18 0 35 -4 38 -8z" id="svg_4" fill="#ffffff" fill-opacity="1"/>
<path d="M2545 1113 c14 -78 3 -73 146 -73 71 0 129 -3 129 -6 0 -3 -35 -139 -77 -301 -96 -368 -99 -347 63 -351 l111 -3 85 328 85 328 128 5 c143 6 127 -3 149 83 l6 27 -415 0 -416 0 6 -37z" id="svg_5" fill="#ffffff" fill-opacity="1"/>
<path d="M3430 1144 c0 -3 -38 -153 -85 -333 -47 -180 -85 -344 -85 -364 0 -66 4 -67 360 -67 l315 0 88 343 c48 188 88 354 88 368 -2 58 -7 59 -359 59 -177 0 -322 -3 -322 -6z m402 -110 c3 -3 -21 -107 -53 -232 -33 -125 -64 -246 -70 -269 l-11 -43 -84 0 c-46 0 -84 3 -84 7 0 7 128 509 135 531 4 12 155 18 167 6z" id="svg_6" fill="#ffffff" fill-opacity="1"/>
<path d="M4147 773 c-54 -208 -97 -382 -97 -386 0 -4 59 -6 132 -5 l131 3 68 265 c37 146 75 293 85 328 l16 62 54 0 c30 0 54 -2 54 -4 0 -5 -158 -613 -166 -638 -5 -17 6 -18 129 -18 l133 0 85 330 84 330 53 0 c40 0 52 -3 52 -16 0 -8 -36 -153 -80 -321 -44 -168 -80 -310 -80 -315 0 -5 59 -7 131 -6 l132 3 88 340 c49 187 89 350 89 363 0 12 -9 31 -20 42 -19 19 -33 20 -498 20 l-479 0 -96 -377z" id="svg_7" fill="#ffffff" fill-opacity="1"/>
<path d="M5286 813 c-47 -186 -87 -350 -86 -365 0 -15 10 -36 22 -48 19 -17 35 -20 120 -20 l97 0 10 38 c5 20 48 186 96 367 47 182 88 338 91 348 5 16 -6 17 -129 17 l-133 0 -88 -337z" id="svg_8" fill="#ffffff" fill-opacity="1"/>
<path d="M5715 1004 c-42 -159 -45 -197 -19 -225 16 -17 33 -19 201 -19 100 0 183 -3 183 -7 0 -5 -14 -65 -32 -135 l-33 -128 -217 0 -217 0 -11 -42 c-6 -24 -13 -49 -15 -56 -4 -10 67 -12 347 -10 l351 3 48 185 c52 198 58 249 33 274 -19 20 -15 19 -211 16 -181 -3 -184 -1 -164 62 5 18 15 52 21 76 l11 42 208 0 209 0 5 29 c3 16 9 40 13 55 l6 26 -339 0 -340 0 -38 -146z" id="svg_9" fill="#ffffff" fill-opacity="1"/>
<path d="M6565 1138 c-17 -48 -175 -672 -175 -691 0 -13 10 -33 23 -45 23 -22 24 -22 498 -22 l474 0 94 368 c52 202 97 375 99 385 4 16 -5 17 -129 15 l-134 -3 -85 -327 -85 -328 -47 0 c-26 0 -49 4 -52 8 -3 5 32 152 78 328 l82 319 -129 3 c-71 1 -131 1 -133 0 -1 -2 -39 -142 -84 -313 -44 -171 -83 -318 -86 -327 -8 -26 -104 -26 -104 0 0 9 36 155 80 325 44 169 80 309 80 312 0 3 -59 5 -130 5 -96 0 -132 -3 -135 -12z" id="svg_10" fill="#ffffff" fill-opacity="1"/>
<path d="M7697 1143 c-5 -8 -197 -749 -197 -758 0 -3 60 -5 133 -5 l133 0 23 95 23 95 123 0 123 0 7 -77 c10 -123 -3 -113 147 -113 l131 0 -6 48 c-4 26 -20 187 -38 357 -24 244 -35 315 -49 335 l-17 25 -266 3 c-146 1 -268 -1 -270 -5z m314 -120 c0 -10 8 -91 17 -180 l18 -163 -102 0 -102 0 46 180 46 180 38 0 c29 0 38 -4 39 -17z" id="svg_11" fill="#ffffff" fill-opacity="1"/>
<path d="M8374 1103 c3 -27 20 -187 37 -358 32 -322 38 -349 82 -360 12 -3 134 -4 271 -3 l249 3 98 375 c54 206 98 379 99 383 0 4 -60 6 -132 5 l-133 -3 -85 -327 -85 -328 -37 0 c-31 0 -38 4 -42 23 -3 12 -17 144 -31 292 -14 149 -28 287 -31 308 l-6 37 -130 0 -130 0 6 -47z" id="svg_12" fill="#ffffff" fill-opacity="1"/>
<path d="M9320 1145 c0 -2 -38 -151 -85 -329 -47 -179 -85 -343 -85 -365 0 -71 0 -71 362 -71 l317 0 10 38 c22 77 36 72 -198 72 -116 0 -212 4 -215 9 -3 5 8 63 26 130 l31 121 190 2 190 3 13 45 c8 25 14 46 14 48 0 1 -86 2 -191 2 -177 0 -190 1 -185 18 3 9 10 36 15 60 6 23 16 60 21 82 l11 40 209 0 c115 0 211 4 214 8 3 5 8 28 12 50 l7 42 -342 0 c-187 0 -341 -2 -341 -5z" id="svg_13" fill="#ffffff" fill-opacity="1"/>
</g></g></svg>