<svg xmlns="http://www.w3.org/2000/svg" version="1.0" width="924.000000" height="284.000000" preserveAspectRatio="xMidYMid meet"><rect id="backgroundrect" width="100%" height="100%" x="0" y="0" fill="none" stroke="none"/>
<metadata>
Created by potrace 1.15, written by Peter Selinger 2001-2017
</metadata>

<g class="currentLayer" style=""><title>Layer 1</title><g transform="translate(0,284) scale(0.10000000149011612,-0.10000000149011612) " fill="#ffffff" stroke="none" id="svg_1" class="selected" fill-opacity="1">
<path d="M1355 2736 c-44 -14 -889 -488 -919 -514 -31 -29 -55 -87 -67 -164 -16 -105 -25 -122 -86 -169 -37 -28 -62 -56 -77 -88 -20 -45 -21 -57 -21 -506 l0 -460 24 -38 c16 -27 41 -47 80 -65 l56 -27 5 -100 c6 -112 14 -132 85 -214 109 -127 135 -136 429 -156 501 -33 625 -16 740 98 49 49 84 120 99 199 10 51 14 57 41 62 42 9 121 62 155 105 132 167 136 417 8 539 -38 37 -117 71 -303 132 -120 39 -135 42 -219 38 -76 -3 -98 -8 -144 -33 -29 -16 -66 -44 -81 -63 l-27 -33 -8 211 c-5 142 -4 215 3 222 7 7 20 4 40 -10 51 -37 275 -130 339 -142 162 -28 307 47 377 195 45 94 51 153 38 372 -6 109 -17 215 -24 237 -9 30 -48 73 -170 189 -87 84 -174 160 -194 170 -47 24 -129 30 -179 13z m159 -114 c24 -17 44 -41 52 -63 19 -56 34 -448 20 -518 -28 -137 -120 -226 -275 -266 l-63 -16 -33 25 c-33 26 -61 60 -83 102 -11 21 -10 21 28 12 123 -32 255 86 268 238 8 108 -17 413 -38 462 -14 31 -16 44 -7 47 7 2 19 6 27 9 25 8 63 -3 104 -32z m-210 -60 c9 -18 19 -95 27 -224 11 -179 11 -200 -5 -240 -29 -77 -101 -126 -154 -107 -26 10 -37 33 -52 111 -15 78 -50 108 -123 108 -46 -1 -71 -11 -222 -93 -158 -86 -172 -96 -193 -137 l-24 -45 7 -540 c7 -606 6 -593 78 -629 37 -17 49 -18 205 -7 176 12 226 26 269 72 32 35 52 100 46 148 -7 50 32 137 78 176 88 73 188 -21 159 -150 -16 -70 -47 -97 -153 -136 -110 -40 -142 -85 -156 -227 -17 -167 -14 -165 -358 -151 -195 8 -262 14 -273 25 -10 10 -16 46 -20 119 -7 121 -22 152 -86 173 -21 7 -48 22 -59 33 -19 19 -20 35 -23 422 -2 274 0 419 8 454 11 52 17 59 93 124 50 42 73 90 81 169 14 134 -7 116 426 361 212 119 391 218 397 218 7 1 19 -12 27 -27z m468 -179 c41 -43 47 -70 59 -251 13 -196 9 -242 -26 -321 -66 -146 -197 -198 -354 -139 l-63 24 64 32 c116 57 203 173 228 303 10 50 7 220 -6 378 l-5 63 38 -30 c21 -17 50 -43 65 -59z m-746 -290 c3 -16 9 -42 14 -59 7 -30 7 -31 -59 -59 -157 -68 -189 -86 -201 -116 -10 -22 -10 -126 0 -466 6 -240 16 -445 21 -455 19 -35 44 -40 150 -27 100 11 117 10 104 -10 -16 -27 -69 -40 -210 -50 -138 -11 -150 -10 -166 6 -15 16 -17 70 -24 539 -6 494 -6 521 12 542 23 29 300 181 330 181 17 1 24 -6 29 -26z m-75 -353 l75 -31 13 -345 c7 -190 11 -347 9 -349 -1 -2 -40 -6 -84 -10 l-82 -7 -6 238 c-3 132 -9 305 -12 387 -3 81 -2 147 3 147 4 0 42 -14 84 -30z m556 -435 c57 -17 115 -73 155 -147 35 -67 32 -172 -8 -258 -17 -36 -51 -86 -75 -112 -52 -56 -152 -118 -190 -118 -24 0 -27 -4 -33 -51 -9 -68 -52 -185 -87 -235 -53 -77 -65 -79 -358 -60 -213 14 -263 20 -298 37 -23 11 -47 27 -54 36 -12 13 -5 14 61 9 191 -15 378 -17 420 -6 86 23 140 104 140 210 0 61 17 116 42 140 12 11 49 29 84 40 127 43 189 130 189 266 -1 133 -60 203 -180 215 l-60 5 45 22 c54 26 134 29 207 7z m325 -126 c17 -12 42 -47 56 -77 22 -48 24 -64 19 -128 -13 -178 -129 -304 -278 -304 l-32 0 51 53 c120 128 165 323 104 460 l-21 47 35 -15 c19 -8 49 -24 66 -36z m-219 -631 c-14 -75 -66 -149 -135 -192 -27 -18 -129 -48 -136 -42 -2 2 8 21 22 43 25 38 76 177 76 207 0 13 15 16 90 16 l90 0 -7 -32z" id="svg_2" fill="#ffffff" fill-opacity="1"/>
<path d="M6253 1863 c-12 -2 -34 -18 -48 -34 -24 -29 -25 -36 -25 -162 l0 -131 182 -368 182 -368 110 0 111 0 198 375 197 374 0 103 c0 167 -24 211 -112 211 -34 0 -47 -6 -70 -32 -27 -30 -28 -36 -28 -129 l0 -98 -141 -269 c-78 -149 -145 -273 -149 -278 -3 -4 -68 119 -143 273 l-137 281 0 100 c0 93 -2 102 -25 124 -13 14 -31 25 -39 25 -8 0 -20 2 -28 4 -7 2 -23 1 -35 -1z" id="svg_3" fill="#ffffff" fill-opacity="1"/>
<path d="M2669 1851 c-44 -14 -67 -30 -198 -136 -70 -56 -132 -115 -139 -129 -8 -18 -12 -92 -12 -229 0 -172 3 -207 18 -237 22 -44 284 -266 332 -280 23 -7 125 -10 288 -8 l254 3 24 28 c26 30 33 92 14 128 -24 43 -56 49 -290 49 l-220 0 -105 87 -105 86 0 144 c0 78 3 143 8 143 4 0 48 34 97 75 l90 75 228 0 c284 0 307 8 307 110 0 33 -6 48 -29 71 l-29 29 -254 -1 c-139 0 -265 -4 -279 -8z" id="svg_4" fill="#ffffff" fill-opacity="1"/>
<path d="M4429 1821 c-39 -39 -40 -96 -3 -140 l26 -31 204 0 c167 0 211 -3 235 -16 35 -17 59 -67 59 -118 l0 -34 -242 -4 c-226 -3 -246 -5 -291 -25 -80 -37 -123 -78 -159 -151 -30 -61 -33 -75 -33 -157 1 -72 5 -100 24 -143 30 -67 104 -134 178 -162 130 -48 329 -46 455 5 l60 25 27 -29 c35 -38 80 -47 124 -26 19 9 39 26 46 38 9 16 11 126 9 407 -3 359 -4 388 -23 425 -27 55 -88 112 -148 141 -50 23 -60 24 -285 24 l-234 0 -29 -29z m521 -615 c0 -60 -2 -66 -33 -93 -102 -89 -230 -121 -369 -92 -73 16 -118 61 -118 118 0 23 7 55 15 71 28 55 49 59 288 60 l217 0 0 -64z" id="svg_5" fill="#ffffff" fill-opacity="1"/>
<path d="M8421 1835 c-86 -24 -187 -83 -235 -136 -71 -79 -76 -105 -76 -393 l0 -251 31 -54 c41 -71 112 -141 174 -171 49 -25 56 -25 339 -28 159 -2 305 -1 324 3 53 10 82 45 82 100 0 38 -5 52 -29 76 l-29 29 -287 0 c-235 0 -291 3 -315 15 -37 19 -90 96 -90 129 l0 26 320 0 c348 0 367 3 408 55 20 26 22 39 22 175 l0 147 -35 70 c-42 84 -112 154 -193 191 -52 24 -70 26 -207 29 -111 2 -164 -1 -204 -12z m316 -206 c69 -26 122 -110 123 -191 l0 -48 -275 0 -275 0 0 55 c0 91 29 131 127 171 49 20 75 24 165 24 59 0 119 -5 135 -11z" id="svg_6" fill="#ffffff" fill-opacity="1"/>
</g></g></svg>