<?xml version="1.0" encoding="utf-8"?>
<!-- Generator: Adobe Illustrator 24.0.1, SVG Export Plug-In . SVG Version: 6.00 Build 0)  -->
<svg version="1.1"
	 id="svg2" xmlns:cc="http://creativecommons.org/ns#" xmlns:dc="http://purl.org/dc/elements/1.1/" xmlns:inkscape="http://www.inkscape.org/namespaces/inkscape" xmlns:ns="&#38;#38;#38;ns_sfw;" xmlns:rdf="http://www.w3.org/1999/02/22-rdf-syntax-ns#" xmlns:sodipodi="http://sodipodi.sourceforge.net/DTD/sodipodi-0.dtd" xmlns:svg="http://www.w3.org/2000/svg"
	 xmlns="http://www.w3.org/2000/svg" xmlns:xlink="http://www.w3.org/1999/xlink" x="0px" y="0px" viewBox="0 0 253.1 109.2"
	 enable-background="new 0 0 253.1 109.2" xml:space="preserve">
<sodipodi:namedview  bordercolor="#666666" borderopacity="1" fit-margin-bottom="0" fit-margin-left="0" fit-margin-right="0" fit-margin-top="0" gridtolerance="10" guidetolerance="10" id="namedview19" inkscape:current-layer="g4889" inkscape:cx="226.04387" inkscape:cy="-34.374599" inkscape:pageopacity="0" inkscape:pageshadow="2" inkscape:window-height="1137" inkscape:window-maximized="1" inkscape:window-width="1920" inkscape:window-x="-8" inkscape:window-y="-8" inkscape:zoom="1.8078363" objecttolerance="10" pagecolor="#ffffff" showgrid="false">
	</sodipodi:namedview>
<g>
	<path fill="#FFFFFF" d="M169.9,15.2v0.7c0-9.1,21.3-9.5,21.8-9.5h0.1V5.8h-0.1C191.2,5.8,169.9,6.2,169.9,15.2z"/>
	<polygon fill="#FFFFFF" points="155.4,108.5 126.6,108.5 97.8,108.5 90.1,108.5 61.3,108.5 61.3,109.2 90.1,109.2 97.8,109.2 
		126.6,109.2 155.4,109.2 163.1,109.2 191.8,109.2 191.8,108.5 163.1,108.5 	"/>
	<path fill="#FFFFFF" d="M148.5,93.3c0,5.2-9.7,9.5-21.8,9.5h-0.1h-0.1c-12.1,0-21.8-4.2-21.8-9.5v-3.4H83.2v3.4
		c0,5.2-9.7,9.5-21.8,9.5h-0.1v0.7v5.1h28.8h7.7h28.8h28.8h7.7h28.8v-5.1v-0.7h-0.1c-12.1,0-21.8-4.2-21.8-9.5v-3.4h-21.5
		L148.5,93.3L148.5,93.3z"/>
	<path fill="#FFFFFF" d="M161.1,58v7.9c0,0-0.8,0-12.7,0v3.4h21.5v-5C164.4,61.6,161.1,58,161.1,58z"/>
	<path fill="#FFFFFF" d="M126.4,6.5L126.4,6.5h0.2c0.5,0,21.8,0.4,21.8,9.5v-0.7c0-9.1-21.3-9.5-21.8-9.5h-0.1h-0.1
		c-0.5,0-21.8,0.4-21.8,9.5V16C104.7,6.9,125.9,6.5,126.4,6.5z"/>
	<path fill="#FFFFFF" d="M61.5,5.8L61.5,5.8l-0.1,0.7h0.1c0.5,0,21.8,0.4,21.8,9.5v-0.7C83.2,6.2,61.9,5.8,61.5,5.8z"/>
	<path fill="#FFFFFF" d="M104.1,53.8c-0.6,0.1-0.9,0.4-0.9,1c0,0.7,0.8,1.1,1.5,1.3v-2.5C104.5,53.7,104.3,53.7,104.1,53.8z"/>
	<path fill="#FFFFFF" d="M85.6,54.7c0,0,0.1-21,0.1-21.6c0-0.6-0.1-1.2-0.4-1.7c-0.6-0.7-1.6-1-1.6-1v-9.9c0,0,13.6,0,21.1,0v-4.6
		v-0.7c0-9.1,21.3-9.5,21.8-9.5h0.1h0.1c0.5,0,21.8,0.4,21.8,9.5v0.7V20c5.8,1.2,10.1,4.1,12.9,8.3c2.3-2.8,5.3-4.9,8.6-6.4v-6v-0.7
		c0-9.1,21.3-9.5,21.8-9.5h0.1v-5V0h-28.8h-7.7h-28.8H97.8h-7.7H61.3v0.7v5.1h0.1c0.5,0,21.8,0.4,21.8,9.5V16v35l0.6,1.6
		C83.8,52.6,84.7,54.3,85.6,54.7z"/>
	<path fill="#FFFFFF" d="M104.7,65.9c-2.8,0-11.2,0-21.5,0v3.4h21.5V65.9z"/>
	<path fill="#FFFFFF" d="M104.7,69.3H83.2H28.9c-5.3,0-9.5,4.3-9.5,9.5v1.5c0,5.3,4.3,9.5,9.5,9.5h54.3h21.5h43.8H170h54.3
		c5.3,0,9.5-4.3,9.5-9.5v-1.5c0-5.3-4.3-9.5-9.5-9.5H170h-21.5H104.7z M173.9,75.2h2.3l3.4,6.3l3.3-6.3h2.3l0.3,9.1H183l-0.2-4.4
		l-2.5,4.4h-1.6l-2.5-4.4l-0.2,4.4h-2.3L173.9,75.2z M75.2,78.1c0,0.4-0.1,0.8-0.2,1.2c-0.1,0.4-0.3,0.7-0.6,1
		c-0.4,0.4-0.8,0.6-1.2,0.8c-0.4,0.2-1,0.3-1.7,0.3H70v3h-2.4v-9.1h3.9c0.6,0,1.1,0.1,1.5,0.2s0.8,0.2,1.1,0.4
		c0.4,0.2,0.6,0.5,0.8,0.9C75.1,77.1,75.2,77.5,75.2,78.1L75.2,78.1z M85.7,84.3h-6.6v-9.1h2.4v7.4h4.2V84.3z M95.8,84.3L95,82.5
		h-4.6l-0.8,1.8h-2.4l4.2-9.1h2.7l4.2,9.1H95.8z M106.3,80.8v3.5h-2.4v-3.4l-3.6-5.7h2.7l2.2,3.5l2.1-3.5h2.6L106.3,80.8z
		 M126.5,81.3L126.5,81.3c0,0.9-0.4,1.6-1.1,2.2c-0.8,0.6-1.8,0.8-3.1,0.8c-0.8,0-1.4-0.1-2-0.2s-1.1-0.3-1.6-0.5l0.8-1.8
		c0.3,0.2,0.8,0.4,1.1,0.5c0.6,0.2,1.2,0.3,1.7,0.3c0.1,0,0.3,0,0.6,0s0.4-0.1,0.6-0.1c0.2-0.1,0.3-0.2,0.4-0.3
		c0.1-0.1,0.2-0.3,0.2-0.5s-0.1-0.4-0.3-0.5c-0.2-0.1-0.4-0.3-0.7-0.3c-0.3-0.1-0.7-0.2-1.1-0.2c-0.4-0.1-0.7-0.2-1.1-0.3
		c-0.8-0.2-1.3-0.6-1.7-1c-0.3-0.4-0.5-1-0.5-1.6c0-0.9,0.4-1.5,1.1-2.1c0.8-0.5,1.7-0.8,2.9-0.8c0.6,0,1.2,0.1,1.8,0.2
		c0.6,0.1,1.1,0.3,1.5,0.4l-1,1.6c-0.2-0.1-0.4-0.2-0.6-0.3c-0.5-0.2-1.1-0.3-1.6-0.3c-0.2,0-0.4,0-0.6,0s-0.4,0.1-0.6,0.1
		c-0.2,0.1-0.3,0.2-0.4,0.3c-0.1,0.1-0.2,0.3-0.2,0.4c0,0.2,0.1,0.4,0.3,0.6c0.2,0.1,0.5,0.2,1,0.3c0.3,0.1,0.7,0.1,1,0.2
		s0.6,0.2,1,0.3c0.7,0.2,1.2,0.5,1.5,0.9C126.3,80.1,126.5,80.6,126.5,81.3L126.5,81.3L126.5,81.3z M135.2,80.8v3.5h-2.4v-3.4
		l-3.6-5.7h2.7l2.2,3.5l2.1-3.5h2.6L135.2,80.8z M162.8,75.2h7V77h-4.7v1.6h4.4v1.8h-4.4v2.3h4.7v1.8h-7V75.2z M151.8,75.2h8.1V77
		H157v7.4h-2.4V77h-2.9L151.8,75.2L151.8,75.2z M148.7,81.3L148.7,81.3c0,0.9-0.4,1.6-1.1,2.2c-0.8,0.6-1.8,0.8-3.1,0.8
		c-0.8,0-1.4-0.1-2-0.2s-1.1-0.3-1.6-0.5l0.8-1.8c0.3,0.2,0.8,0.4,1.1,0.5c0.6,0.2,1.2,0.3,1.7,0.3c0.1,0,0.3,0,0.6,0
		c0.2,0,0.4-0.1,0.6-0.1c0.2-0.1,0.3-0.2,0.4-0.3c0.1-0.1,0.2-0.3,0.2-0.5s-0.1-0.4-0.3-0.5s-0.4-0.3-0.7-0.3
		c-0.3-0.1-0.7-0.2-1.1-0.2c-0.4-0.1-0.7-0.2-1.1-0.3c-0.8-0.2-1.3-0.6-1.7-1c-0.3-0.4-0.5-1-0.5-1.6c0-0.9,0.4-1.5,1.1-2.1
		c0.8-0.5,1.7-0.8,2.9-0.8c0.6,0,1.2,0.1,1.8,0.2s1.1,0.3,1.5,0.4l-1,1.6c-0.2-0.1-0.4-0.2-0.6-0.3c-0.5-0.2-1.1-0.3-1.6-0.3
		c-0.2,0-0.4,0-0.6,0c-0.2,0-0.4,0.1-0.6,0.1c-0.2,0.1-0.3,0.2-0.4,0.3c-0.1,0.1-0.2,0.3-0.2,0.4c0,0.2,0.1,0.4,0.3,0.6
		c0.2,0.1,0.5,0.2,1,0.3c0.3,0.1,0.7,0.1,1,0.2s0.6,0.2,1,0.3c0.7,0.2,1.2,0.5,1.5,0.9C148.5,80.1,148.7,80.6,148.7,81.3L148.7,81.3
		L148.7,81.3z"/>
	<path fill="#FFFFFF" d="M72,77.1c-0.2-0.1-0.5-0.2-0.7-0.2s-0.5,0-0.9,0H70v2.7h0.7c0.4,0,0.7,0,1-0.1c0.3,0,0.5-0.1,0.7-0.3
		c0.2-0.1,0.3-0.3,0.3-0.5c0.1-0.2,0.1-0.4,0.1-0.7c0-0.3-0.1-0.5-0.2-0.7C72.4,77.3,72.2,77.1,72,77.1z"/>
	<polygon fill="#FFFFFF" points="91.1,80.8 94.3,80.8 92.7,77.5 	"/>
	<path fill="#FFFFFF" d="M27.9,55.9c-10.7,0-14-9.7-14-15s3-11.7,9.9-11.7s7.1,4.5,7.1,5.5c0,1.1-0.6,1.6-0.6,1.9
		c0,0.2,0.2,0.3,0.2,0.3l0.8,0.7c0,0,0.4,0.3,0.7,0.3c0.3,0,0.6-0.2,0.6-0.2L39,31l0,0c0,0-5.6-7.1-14.8-7.1
		c-9.6,0-20.1,6.7-20.1,18.8c0,7.9,7.8,18.9,21.8,18.9h11.7v-9.1h-2.1C35.5,52.4,34.2,55.9,27.9,55.9z"/>
	<path fill="#FFFFFF" d="M81.7,57.8c-0.6-0.7-1.1-1.5-1.5-2.3L68.5,24.8h-9.7l0,0L47.3,56.1c0,0-0.3,0.9-1.1,1.8
		c-0.8,0.8-1.8,1.1-1.8,1.1v2.6h11.3V59c0,0-1.3-0.1-1.7-1.1c-0.2-0.6-0.2-1.5,0-2c0.2-0.6,2.6-6.9,2.6-6.9h11.6
		c0,0,2.4,6.3,2.7,7.1c0.3,0.8,0.3,1.4-0.1,2.2c-0.5,0.8-1.4,0.7-1.4,0.7v2.7h14.2V59C83.6,59,82.2,58.5,81.7,57.8z M58.5,43.2
		l3.6-10.7L66,43.2H58.5z"/>
	<path fill="#FFFFFF" d="M106.2,24.8c-6.7,0-18,0-18.1,0v3c0,0,1.1,0.6,1.5,1.1c0.4,0.4,0.4,1.6,0.4,1.6V57c0,0-0.1,0.7-0.7,1.2
		C88.8,58.8,88,59,88,59v2.6h13.1v-2.7c0,0-0.6-0.2-1.2-0.8c-0.6-0.7-0.6-1.1-0.6-1.1v-5.9c0,0,6.4-1.7,11.2-4c4.2-1.9,9-4.6,9-12.3
		S112.8,24.8,106.2,24.8z M99.4,46.1V30.4c0,0,10.6-2.6,10.6,5.1C110,41.6,99.4,46.1,99.4,46.1z"/>
	<line fill="none" x1="158.6" y1="31" x2="158.6" y2="31"/>
	<path fill="#FFFFFF" d="M143.8,23.9c-9.6,0-20.1,6.7-20.1,18.8c0,7.9,7.8,18.9,21.8,18.9h11.7v-9.1H155c0,0-1.3,3.5-7.6,3.5
		c-10.7,0-14-9.7-14-15s3-11.7,9.9-11.7s7.1,4.5,7.1,5.5c0,1.1-0.6,1.6-0.6,1.9c0,0.2,0.2,0.3,0.2,0.3l0.8,0.7c0,0,0.4,0.3,0.7,0.3
		s0.6-0.2,0.6-0.2l6.4-6.7C158.6,31,153,23.9,143.8,23.9z"/>
	<path fill="#FFFFFF" d="M181.5,23.7c-12,0-21,8.4-21,19.2s8.8,19.7,21,19.7s21-8.9,21-19.7C202.4,32.1,193.4,23.7,181.5,23.7z
		 M181.5,56.7c-5.3,0-10.8-2.7-10.8-13.5l0,0c0-10.8,6.2-13.5,10.8-13.5s10.9,3.4,10.9,13.5S186.8,56.7,181.5,56.7z"/>
	<path fill="#FFFFFF" d="M237.8,56.7c0.1,0.9-0.1,1.2-0.5,1.8s-1.6,0.7-1.6,0.7v2.4h13.5v-2.3c0,0-1.1-0.5-1.3-1.1s-0.3-1.1-0.5-2
		c-0.1-0.9-3.7-25.4-3.8-26.3s-0.1-1.4,0.4-2c0.4-0.5,1.3-0.9,1.3-0.9v-2.2h-14.1l-5.2,15l-4.9-15h-13.4v2.6c0,0,1.6,0.4,1.9,0.9
		c0.3,0.4,0,1.4,0,1.4l-4.3,26.5c0,0-0.1,1-0.8,1.8s-1.6,0.9-1.6,0.9v2.6h11.7v-2.4c0,0-1.1,0-1.8-0.9c-0.5-0.7-0.3-1.9-0.3-1.9
		l2.9-20.1l5.8,17h7.1l5.9-18.2C234.5,35.2,237.7,55.8,237.8,56.7z"/>
</g>
</svg>
