<?xml version="1.0" encoding="utf-8"?>
<!-- Generator: Adobe Illustrator 24.0.1, SVG Export Plug-In . SVG Version: 6.00 Build 0)  -->
<svg version="1.1"
	 id="svg2" xmlns:cc="http://creativecommons.org/ns#" xmlns:dc="http://purl.org/dc/elements/1.1/" xmlns:inkscape="http://www.inkscape.org/namespaces/inkscape" xmlns:ns="&#38;#38;ns_sfw;" xmlns:rdf="http://www.w3.org/1999/02/22-rdf-syntax-ns#" xmlns:sodipodi="http://sodipodi.sourceforge.net/DTD/sodipodi-0.dtd" xmlns:svg="http://www.w3.org/2000/svg"
	 xmlns="http://www.w3.org/2000/svg" xmlns:xlink="http://www.w3.org/1999/xlink" x="0px" y="0px" viewBox="0 0 253.1 109.2"
	 enable-background="new 0 0 253.1 109.2" xml:space="preserve">
<sodipodi:namedview  bordercolor="#666666" borderopacity="1" fit-margin-bottom="0" fit-margin-left="0" fit-margin-right="0" fit-margin-top="0" gridtolerance="10" guidetolerance="10" id="namedview19" inkscape:current-layer="g4889" inkscape:cx="234.46101" inkscape:cy="6.2628975" inkscape:pageopacity="0" inkscape:pageshadow="2" inkscape:window-height="1137" inkscape:window-maximized="1" inkscape:window-width="1920" inkscape:window-x="-8" inkscape:window-y="-8" inkscape:zoom="2.5566666" objecttolerance="10" pagecolor="#ffffff" showgrid="false">
	</sodipodi:namedview>
<g>
	<path fill="#FFFFFF" d="M105.4,101.4c-0.6,0.2-1.2,0.3-1.8,0.4C104.2,101.7,104.8,101.5,105.4,101.4z"/>
	<path fill="#FFFFFF" d="M107.9,100.6c-0.5,0.2-1.1,0.4-1.7,0.5C106.8,100.9,107.4,100.8,107.9,100.6z"/>
	<path fill="#FFFFFF" d="M109.5,100c-0.5,0.2-1,0.4-1.5,0.6C108.5,100.4,109,100.2,109.5,100z"/>
	<path fill="#FFFFFF" d="M94.1,102.7c3,0,5.9-0.3,8.5-0.7C100,102.5,97.1,102.7,94.1,102.7L94.1,102.7z"/>
	<rect x="93.9" y="102.7" fill="#FFFFFF" width="0" height="0.7"/>
	<rect x="93.9" y="0" fill="#FFFFFF" width="0" height="0.7"/>
	<rect x="93.9" y="0.7" fill="#FFFFFF" width="0" height="5.1"/>
	<rect x="93.9" y="0.7" fill="#FFFFFF" width="0" height="5.1"/>
	<rect x="93.9" y="103.4" fill="#FFFFFF" width="0" height="5.1"/>
	<rect x="93.9" y="103.4" fill="#FFFFFF" width="0" height="5.1"/>
	<path fill="#FFFFFF" d="M202.6,15.2v0.7c0-9.1,21.3-9.5,21.8-9.5h0.1V5.8h-0.1C223.9,5.8,202.6,6.2,202.6,15.2z"/>
	<polygon fill="#FFFFFF" points="188,108.5 159.2,108.5 159.2,108.5 130.4,108.5 130.4,108.5 122.7,108.5 122.7,108.5 93.9,108.5 
		93.9,108.5 65.2,108.5 57.5,108.5 28.7,108.5 28.7,109.2 57.5,109.2 65.2,109.2 93.9,109.2 93.9,109.2 122.7,109.2 122.7,109.2 
		130.4,109.2 130.4,109.2 159.2,109.2 159.2,109.2 188,109.2 195.7,109.2 224.5,109.2 224.5,108.5 195.7,108.5 	"/>
	<path fill="#FFFFFF" d="M198.7,60.5c0,0-7.4,6.6-17,6.6c-0.2,0-0.3,0-0.5,0v2.3h21.5V66h-3.9v-5.5H198.7z"/>
	<path fill="#FFFFFF" d="M181.1,93.3c0,5.2-9.7,9.5-21.8,9.5h-0.1l0,0h-0.1c-4.9,0-9.4-0.7-13-1.9c-1.7-0.5-3.2-1.2-4.4-1.9
		c-0.4-0.2-0.8-0.5-1.2-0.8c-2-1.4-3.1-3.1-3.1-4.9v-3.4h-21.5v3.4c0,2.6-2.4,5-6.4,6.7c-0.5,0.2-1,0.4-1.5,0.6s-1.1,0.4-1.7,0.5
		c-0.3,0.1-0.6,0.2-0.9,0.2c-0.6,0.2-1.2,0.3-1.8,0.4c-0.3,0.1-0.6,0.1-1,0.2c-2.6,0.5-5.5,0.7-8.5,0.7l0,0H94v0.7v5.1h28.8l0,0h7.7
		l0,0h28.8l0,0H188h7.7h28.8v-5.1v-0.7h-0.1c-12.1,0-21.8-4.2-21.8-9.5v-3.4h-21.5L181.1,93.3L181.1,93.3z"/>
	<path fill="#FFFFFF" d="M93.8,6.5L93.8,6.5L93.8,6.5H94c0.2,0,3.3,0.1,7.1,0.6c0.3,0,0.6,0.1,1,0.1c0.7,0.1,1.3,0.2,2,0.4
		c1.3,0.3,2.7,0.6,4,1c0.6,0.2,1.3,0.4,1.9,0.7s1.2,0.5,1.7,0.8c2.4,1.4,4.1,3.2,4.1,5.8l0,0v-0.7c0-1.4-0.5-2.6-1.4-3.6
		c-0.4-0.4-0.8-0.8-1.2-1.1c-0.2-0.2-0.5-0.3-0.7-0.5c-1-0.7-2.2-1.2-3.4-1.7c-1.3-0.5-2.6-0.8-3.9-1.2c-1-0.2-2-0.4-3-0.6
		c-0.3-0.1-0.6-0.1-1-0.1c-3.8-0.5-6.9-0.6-7.1-0.6l0,0H94l0,0h-0.1C93.3,5.8,72,6.2,72,15.2v0.7C72,6.9,93.3,6.5,93.8,6.5z"/>
	<path fill="#FFFFFF" d="M28.8,5.8h-0.1v0.7h0.1c0.5,0,21.8,0.4,21.8,9.5v-0.7C50.6,6.2,29.3,5.8,28.8,5.8z"/>
	<path fill="#FFFFFF" d="M65.2,108.5H94v-5.1v-0.7h-0.1c-12.1,0-21.8-4.2-21.8-9.5v-3.4H50.6v3.4c0,5.2-9.7,9.5-21.8,9.5h-0.1v0.7
		v5.1h28.8H65.2z"/>
	<path fill="#FFFFFF" d="M72,65.9c-7.2,0-14.6,0-21.5,0v3.4H72V65.9z"/>
	<path fill="#FFFFFF" d="M71.4,20.5l0.6,1.7v-6.3v-0.7c0-9.1,21.3-9.5,21.8-9.5h0.1v-5V0H65.2h-7.7H28.7v0.7v5.1h0.1
		c0.5,0,21.8,0.4,21.8,9.5V16v18.7l5.3-14.1h15.5V20.5z"/>
	<path fill="#FFFFFF" d="M152.9,7c0.6-0.1,1.2-0.1,1.8-0.2s1.1-0.1,1.5-0.1c0.2,0,0.5,0,0.7,0c0.4,0,0.8,0,1.1-0.1c0.6,0,1,0,1.1,0
		h0.1l0,0h0.1c0.5,0,21.8,0.4,21.8,9.5v-0.7c0-9.1-21.3-9.5-21.8-9.5h-0.1l0,0h-0.1c-0.1,0-0.4,0-1.1,0c-0.8,0-1.9,0.1-3.3,0.2
		c-0.6,0.1-1.1,0.1-1.8,0.2c-6.4,0.8-15.6,3-15.6,9V16C137.3,10,146.5,7.8,152.9,7z"/>
	<path fill="#FFFFFF" d="M137.3,69.3v-4.7c-8.6-2.6-15.3-9-17.6-18.5c-0.6,0.6-2,1.6-3.9,2.8v20.5h21.5V69.3z"/>
	<path fill="#FFFFFF" d="M93.9,5.8L93.9,5.8L93.9,5.8c0.3,0,3.4,0.1,7.2,0.6c0.3,0,0.6,0.1,1,0.1c1,0.2,2,0.3,3,0.6
		c1.3,0.3,2.7,0.7,3.9,1.2c1.3,0.5,2.4,1,3.4,1.7c0.3,0.2,0.5,0.3,0.7,0.5c0.5,0.4,0.9,0.7,1.2,1.1c0.9,1,1.4,2.2,1.4,3.6v0.7l0,0
		v6.3c3.2,1.5,4.9,3.9,6.8,7.2c3.6-4.9,8.3-8.4,14.7-9.6v-3.9v-0.7c0-5.9,9.2-8.2,15.6-9c0.6-0.1,1.2-0.1,1.8-0.2
		c1.4-0.1,2.5-0.2,3.3-0.2c0.6,0,1,0,1.1,0h0.1l0,0h0.1c0.5,0,21.8,0.4,21.8,9.5V16v3.4c0.4,0,0.8,0,1.2,0c8.7,0,16.1,4,20.3,10.2
		V15.9v-0.7c0-9.1,21.3-9.5,21.8-9.5h0.1v-5V0h-28.8H188h-28.8l0,0h-28.8l0,0h-7.7l0,0H93.9v0.7V5.8z"/>
	<polygon fill="#FFFFFF" points="91.1,80.8 94.3,80.8 92.7,77.5 	"/>
	<path fill="#FFFFFF" d="M72,77.1c-0.2-0.1-0.5-0.2-0.7-0.2s-0.5,0-0.9,0H70v2.7h0.7c0.4,0,0.7,0,1-0.1c0.3,0,0.5-0.1,0.7-0.3
		c0.2-0.1,0.3-0.3,0.3-0.5c0.1-0.2,0.1-0.4,0.1-0.7c0-0.3-0.1-0.5-0.2-0.7C72.4,77.3,72.2,77.1,72,77.1z"/>
	<path fill="#FFFFFF" d="M137.3,69.3h-21.5H72H50.6H28.9c-5.3,0-9.5,4.3-9.5,9.5v1.5c0,5.3,4.3,9.5,9.5,9.5h21.6H72h43.8h21.5h43.8
		h21.5h21.6c5.3,0,9.5-4.3,9.5-9.5v-1.5c0-5.3-4.3-9.5-9.5-9.5h-21.6h-21.5H137.3z M74.9,79.3c-0.1,0.4-0.3,0.7-0.6,1
		c-0.4,0.4-0.8,0.6-1.2,0.8c-0.4,0.2-1,0.3-1.7,0.3H70v3h-2.4v-9.1h3.9c0.6,0,1.1,0.1,1.5,0.2s0.8,0.2,1.1,0.4
		c0.4,0.2,0.6,0.5,0.8,0.9c0.2,0.4,0.3,0.8,0.3,1.4C75.2,78.5,75.1,78.9,74.9,79.3z M85.7,84.3h-6.6v-9.1h2.4v7.4h4.2V84.3z
		 M95.8,84.3L95,82.5h-4.6l-0.8,1.8h-2.4l4.2-9.1h2.7l4.2,9.1H95.8z M106.3,80.8v3.5h-2.4v-3.4l-3.6-5.7h2.7l2.2,3.5l2.1-3.5h2.6
		L106.3,80.8z M125.4,83.5c-0.8,0.6-1.8,0.8-3.1,0.8c-0.8,0-1.4-0.1-2-0.2s-1.1-0.3-1.6-0.5l0.8-1.8c0.3,0.2,0.8,0.4,1.1,0.5
		c0.6,0.2,1.2,0.3,1.7,0.3c0.1,0,0.3,0,0.6,0s0.4-0.1,0.6-0.1c0.2-0.1,0.3-0.2,0.4-0.3c0.1-0.1,0.2-0.3,0.2-0.5s-0.1-0.4-0.3-0.5
		c-0.2-0.1-0.4-0.3-0.7-0.3c-0.3-0.1-0.7-0.2-1.1-0.2c-0.4-0.1-0.7-0.2-1.1-0.3c-0.8-0.2-1.3-0.6-1.7-1c-0.3-0.4-0.5-1-0.5-1.6
		c0-0.9,0.4-1.5,1.1-2.1c0.8-0.5,1.7-0.8,2.9-0.8c0.6,0,1.2,0.1,1.8,0.2c0.6,0.1,1.1,0.3,1.5,0.4l-1,1.6c-0.2-0.1-0.4-0.2-0.6-0.3
		c-0.5-0.2-1.1-0.3-1.6-0.3c-0.2,0-0.4,0-0.6,0s-0.4,0.1-0.6,0.1c-0.2,0.1-0.3,0.2-0.4,0.3c-0.1,0.1-0.2,0.3-0.2,0.4
		c0,0.2,0.1,0.4,0.3,0.6c0.2,0.1,0.5,0.2,1,0.3c0.3,0.1,0.7,0.1,1,0.2s0.6,0.2,1,0.3c0.7,0.2,1.2,0.5,1.5,0.9s0.5,0.9,0.5,1.5
		C126.5,82.2,126.1,82.9,125.4,83.5z M135.2,80.8v3.5h-2.4v-3.4l-3.6-5.7h2.7l2.2,3.5l2.1-3.5h2.6L135.2,80.8z M147.6,83.5
		c-0.8,0.6-1.8,0.8-3.1,0.8c-0.8,0-1.4-0.1-2-0.2s-1.1-0.3-1.6-0.5l0.8-1.8c0.3,0.2,0.8,0.4,1.1,0.5c0.6,0.2,1.2,0.3,1.7,0.3
		c0.1,0,0.3,0,0.6,0s0.4-0.1,0.6-0.1c0.2-0.1,0.3-0.2,0.4-0.3c0.1-0.1,0.2-0.3,0.2-0.5s-0.1-0.4-0.3-0.5s-0.4-0.3-0.7-0.3
		c-0.3-0.1-0.7-0.2-1.1-0.2c-0.4-0.1-0.7-0.2-1.1-0.3c-0.8-0.2-1.3-0.6-1.7-1c-0.3-0.4-0.5-1-0.5-1.6c0-0.9,0.4-1.5,1.1-2.1
		c0.8-0.5,1.7-0.8,2.9-0.8c0.6,0,1.2,0.1,1.8,0.2s1.1,0.3,1.5,0.4l-1,1.6c-0.2-0.1-0.4-0.2-0.6-0.3c-0.5-0.2-1.1-0.3-1.6-0.3
		c-0.2,0-0.4,0-0.6,0c-0.2,0-0.4,0.1-0.6,0.1c-0.2,0.1-0.3,0.2-0.4,0.3c-0.1,0.1-0.2,0.3-0.2,0.4c0,0.2,0.1,0.4,0.3,0.6
		c0.2,0.1,0.5,0.2,1,0.3c0.3,0.1,0.7,0.1,1,0.2s0.6,0.2,1,0.3c0.7,0.2,1.2,0.5,1.5,0.9s0.5,0.9,0.5,1.5
		C148.7,82.2,148.3,82.9,147.6,83.5z M159.8,76.9H157v7.4h-2.4v-7.4h-2.9v-1.8h8.1L159.8,76.9L159.8,76.9z M169.8,76.9h-4.7v1.6h4.4
		v1.8h-4.4v2.3h4.7v1.8h-7v-9.1h7V76.9z M185.2,75.2l0.3,9.1H183l-0.2-4.4l-2.5,4.4h-1.6l-2.5-4.4l-0.2,4.4h-2.3l0.3-9.1h2.3
		l3.4,6.3l3.3-6.3H185.2z"/>
	<path fill="#FFFFFF" d="M27.9,55.9c-10.7,0-14-9.7-14-15s3-11.7,9.9-11.7s7.1,4.5,7.1,5.5c0,1.1-0.6,1.6-0.6,1.9
		c0,0.2,0.2,0.3,0.2,0.3l0.8,0.7c0,0,0.4,0.3,0.7,0.3c0.3,0,0.6-0.2,0.6-0.2L39,31l0,0c0,0-5.6-7.1-14.8-7.1
		c-9.6,0-20.1,6.7-20.1,18.8c0,7.9,7.8,18.9,21.8,18.9h11.7v-9.1h-2.1C35.5,52.4,34.2,55.9,27.9,55.9z"/>
	<path fill="#FFFFFF" d="M80.2,55.5L68.5,24.8h-9.7l0,0L47.3,56.1c0,0-0.3,0.9-1.1,1.8c-0.8,0.8-1.8,1.1-1.8,1.1v2.6h11.3V59
		c0,0-1.3-0.1-1.7-1.1c-0.2-0.6-0.2-1.5,0-2c0.2-0.6,2.6-6.9,2.6-6.9h11.6c0,0,2.4,6.3,2.7,7.1c0.3,0.8,0.3,1.4-0.1,2.2
		c-0.5,0.8-1.4,0.7-1.4,0.7v2.7h14.2V59c0,0-1.4-0.5-1.9-1.1C81.1,57.2,80.5,56.4,80.2,55.5z M62.1,32.5L66,43.2h-7.5"/>
	<path fill="#FFFFFF" d="M106.2,24.8c-6.7,0-18,0-18.1,0v3c0,0,1.1,0.6,1.5,1.1c0.4,0.4,0.4,1.6,0.4,1.6V57c0,0-0.1,0.7-0.7,1.2
		C88.8,58.8,88,59,88,59v2.6h13.1v-2.7c0,0-0.6-0.2-1.2-0.8c-0.6-0.7-0.6-1.1-0.6-1.1v-5.9c0,0,6.4-1.7,11.2-4c4.2-1.9,9-4.6,9-12.3
		S112.8,24.8,106.2,24.8z M99.4,46.1V30.4c0,0,10.6-2.6,10.6,5.1C110,41.6,99.4,46.1,99.4,46.1z"/>
	<path fill="#FFFFFF" d="M150.1,36.9l0.8,0.7c0,0,0.4,0.3,0.7,0.3s0.6-0.2,0.6-0.2l6.4-6.7c0,0-5.6-7.1-14.8-7.1
		c-9.6,0-20.1,6.7-20.1,18.8c0,7.9,7.8,18.9,21.8,18.9h11.7v-9.1H155c0,0-1.3,3.5-7.6,3.5c-10.7,0-14-9.7-14-15s3-11.7,9.9-11.7
		s7.1,4.5,7.1,5.5c0,1.1-0.6,1.6-0.6,1.9C149.9,36.8,150.1,36.9,150.1,36.9z"/>
	<path fill="#FFFFFF" d="M181.5,23.7c-12,0-21,8.4-21,19.2s8.8,19.7,21,19.7s21-8.9,21-19.7C202.4,32.1,193.4,23.7,181.5,23.7z
		 M181.5,56.7c-5.3,0-10.8-2.7-10.8-13.5s6.2-13.5,10.8-13.5s10.9,3.4,10.9,13.5S186.8,56.7,181.5,56.7z"/>
	<path fill="#FFFFFF" d="M237.8,56.7c0.1,0.9-0.1,1.2-0.5,1.8s-1.6,0.7-1.6,0.7v2.4h13.5v-2.3c0,0-1.1-0.5-1.3-1.1s-0.3-1.1-0.5-2
		c-0.1-0.9-3.7-25.4-3.8-26.3s-0.1-1.4,0.4-2c0.4-0.5,1.3-0.9,1.3-0.9v-2.2h-14.1l-5.2,15l-4.9-15h-13.4v2.6c0,0,1.6,0.4,1.9,0.9
		c0.3,0.4,0,1.4,0,1.4l-4.3,26.5c0,0-0.1,1-0.8,1.8s-1.6,0.9-1.6,0.9v2.6h11.7v-2.4c0,0-1.1,0-1.8-0.9c-0.5-0.7-0.3-1.9-0.3-1.9
		l2.9-20.1l5.8,17h7.1l5.9-18.2C234.5,35.2,237.7,55.8,237.8,56.7z"/>
</g>
</svg>
