<?xml version="1.0" encoding="UTF-8" standalone="no"?>
<svg
   xmlns:dc="http://purl.org/dc/elements/1.1/"
   xmlns:cc="http://creativecommons.org/ns#"
   xmlns:rdf="http://www.w3.org/1999/02/22-rdf-syntax-ns#"
   xmlns:svg="http://www.w3.org/2000/svg"
   xmlns="http://www.w3.org/2000/svg"
   xmlns:sodipodi="http://sodipodi.sourceforge.net/DTD/sodipodi-0.dtd"
   xmlns:inkscape="http://www.inkscape.org/namespaces/inkscape"
   version="1.1"
   id="svg2"
   viewBox="0 0 1680 869.19995"
   height="869.19995"
   width="1680"
   sodipodi:docname="doom.svg"
   inkscape:version="0.92.3 (2405546, 2018-03-11)">
  <sodipodi:namedview
     pagecolor="#ffffff"
     bordercolor="#666666"
     borderopacity="1"
     objecttolerance="10"
     gridtolerance="10"
     guidetolerance="10"
     inkscape:pageopacity="0"
     inkscape:pageshadow="2"
     inkscape:window-width="1920"
     inkscape:window-height="971"
     id="namedview22"
     showgrid="false"
     inkscape:zoom="0.6052548"
     inkscape:cx="760.64049"
     inkscape:cy="464.11893"
     inkscape:window-x="-8"
     inkscape:window-y="-8"
     inkscape:window-maximized="1"
     inkscape:current-layer="svg2" />
  <defs
     id="defs4" />
  <metadata
     id="metadata7">
    <rdf:RDF>
      <cc:Work
         rdf:about="">
        <dc:format>image/svg+xml</dc:format>
        <dc:type
           rdf:resource="http://purl.org/dc/dcmitype/StillImage" />
        <dc:title />
      </cc:Work>
    </rdf:RDF>
  </metadata>
  <path
     inkscape:connector-curvature="0"
     style="fill:#ffffff;fill-opacity:1;stroke:none"
     d="m 1469.1684,762.08086 -0.2917,-292.4969 -46.7662,163.4072 -46.7058,-162.6616 -0.2827,222.0343 -152.4945,-114.3724 11.559,-8.6664 -0.5292,-569.30683 144.9467,0.3774 43.4492,152.19623 L 1465.5658,0.19144 1680,0.88817 l -70.3645,52.57665 -0.1246,814.42954 z M 71.196156,53.33039 0,0 l 401.30069,0.54398 45.93055,35.08717 0.0378,533.50351 12.16772,8.8133 -388.14857,291.252 z m 235.518824,416.21877 -0.15295,-307.89242 -10.75764,-8.78449 -83.44785,0.40375 -0.18291,387.17176 z m 152.39799,82.7814 -0.0717,-516.75483 47.07325,-35.27648 281.69722,-0.0156 46.98005,35.42167 0.17344,597.96244 -133.22444,100.1999 z m 223.12917,-399.76328 -71.04792,0.49268 -11.09868,8.52709 0.15885,308.10291 93.32018,69.9936 0.24947,-377.92826 z M 847.05068,634.22756 846.70952,35.43069 893.62828,0.1919 l 282.06992,0.26967 47.2183,35.27898 -0.3246,515.55821 -241.33557,182.4526 z m 234.65122,-164.742 -0.03,-308.02638 -11.8726,-9.07298 -70.9365,0.23276 -11.40484,8.78228 0.70414,377.32652 z"
     id="path3347" />
</svg>
