<svg xmlns="http://www.w3.org/2000/svg" xmlns:xlink="http://www.w3.org/1999/xlink" width="400,68.74074074074075" height="undefined" style=""><rect id="backgroundrect" width="100%" height="100%" x="0" y="0" fill="none" stroke="none"/><g class="currentLayer" style=""><title>Layer 1</title><g id="svgg" class="selected" fill="#ffffff" fill-opacity="1"><path id="path0" d="M215.781 8.578 C 200.404 12.073,188.355 25.321,192.592 34.073 C 195.695 40.482,206.518 40.259,212.477 33.664 C 218.672 26.807,218.283 15.407,211.854 15.407 C 209.563 15.407,209.565 14.327,211.857 13.370 C 217.186 11.143,234.882 10.628,236.895 12.641 C 237.600 13.346,237.255 13.728,234.526 15.268 C 228.664 18.576,218.907 29.128,216.544 34.714 C 215.369 37.492,214.318 37.982,207.704 38.835 C 206.050 39.049,203.852 40.613,203.852 41.577 C 203.852 42.856,206.319 43.044,209.934 42.041 C 213.011 41.186,213.539 41.718,212.206 44.329 C 206.918 54.684,197.928 60.966,190.832 59.263 C 185.130 57.896,184.808 55.137,190.243 54.219 C 196.558 53.152,194.909 44.444,188.392 44.444 C 176.952 44.444,175.634 57.899,186.675 61.972 C 199.452 66.685,218.252 58.124,225.527 44.279 C 227.845 39.869,228.067 39.721,234.497 38.302 C 243.100 36.405,246.428 34.131,245.356 30.883 C 244.103 27.086,246.298 23.624,250.815 22.273 C 252.729 21.701,252.153 18.115,249.714 15.415 C 247.495 12.959,247.577 12.695,250.667 12.325 C 251.683 12.204,252.208 11.730,252.338 10.815 C 252.554 9.294,249.298 8.937,245.401 10.055 C 243.827 10.506,242.633 10.365,239.775 9.387 C 234.986 7.750,221.436 7.292,215.781 8.578 M43.919 10.397 C 24.573 14.594,10.590 31.833,21.116 38.508 C 29.911 44.086,41.797 38.034,43.064 27.335 C 43.810 21.041,42.395 18.301,38.148 17.813 C 34.513 17.396,34.551 16.601,38.272 15.199 C 42.469 13.619,49.511 14.147,56.889 16.596 C 66.832 19.897,73.159 19.448,76.579 15.198 C 79.190 11.955,77.636 10.630,72.749 11.933 C 70.610 12.503,68.919 12.367,61.721 11.044 C 52.247 9.303,49.433 9.200,43.919 10.397 M366.649 11.232 C 358.129 13.955,348.203 25.567,339.191 43.353 C 337.540 46.612,336.985 47.244,336.003 46.987 C 335.128 46.758,334.131 47.419,332.230 49.490 C 329.414 52.557,328.167 52.369,330.253 49.191 C 330.969 48.099,331.822 46.779,332.148 46.258 C 332.474 45.736,333.306 44.514,333.997 43.543 C 335.442 41.512,337.439 37.641,338.032 35.722 C 338.437 34.411,338.414 34.407,331.145 34.446 C 322.363 34.493,321.564 34.799,315.533 40.432 C 310.768 44.882,310.764 44.881,310.353 39.846 C 310.028 35.867,308.748 34.370,305.667 34.370 C 302.242 34.370,302.337 33.497,306.696 24.920 C 310.863 16.720,310.894 16.587,308.665 16.457 C 303.318 16.146,300.835 17.811,297.891 23.683 C 297.150 25.161,295.458 28.237,294.131 30.519 C 285.720 44.979,282.070 51.466,281.509 52.953 C 280.962 54.401,280.735 54.536,279.945 53.880 C 279.326 53.367,278.889 53.317,278.622 53.730 C 278.144 54.468,274.148 55.284,273.616 54.752 C 273.411 54.546,274.320 52.236,275.636 49.617 C 279.464 42.005,279.434 36.704,275.560 35.853 C 273.593 35.421,268.207 36.918,266.556 38.356 C 265.226 39.515,264.425 38.917,263.956 36.418 C 262.930 30.949,254.966 34.468,253.390 41.087 C 253.127 42.187,253.202 42.635,253.606 42.385 C 254.460 41.857,254.382 43.455,253.511 44.326 C 253.120 44.717,253.001 45.037,253.246 45.037 C 253.492 45.037,252.454 47.365,250.941 50.210 C 248.128 55.500,246.209 60.332,246.719 60.842 C 247.208 61.331,256.593 60.320,256.593 59.779 C 256.593 59.497,257.793 56.716,259.259 53.598 C 260.726 50.480,261.926 47.723,261.926 47.472 C 261.926 46.410,269.457 38.934,270.116 39.342 C 271.254 40.045,270.976 40.978,267.556 47.947 C 262.569 58.107,263.182 60.444,270.831 60.444 C 274.150 60.444,275.150 60.179,277.546 58.659 L 280.362 56.874 282.277 58.905 C 286.434 63.312,298.412 61.654,303.709 55.939 C 305.358 54.159,305.782 54.320,306.702 57.080 C 307.977 60.904,313.663 61.974,316.584 58.939 L 317.886 57.586 319.211 59.015 C 321.909 61.926,326.602 60.445,332.000 54.977 C 333.874 53.078,335.418 51.599,335.432 51.689 C 335.445 51.778,335.512 53.491,335.580 55.494 C 335.855 63.593,340.938 64.055,348.380 56.656 C 353.458 51.609,353.778 51.576,353.778 56.099 C 353.778 63.775,359.770 63.478,367.299 55.429 C 372.889 49.454,371.332 46.042,365.655 51.826 C 362.818 54.717,362.074 54.771,362.074 52.090 C 362.074 48.789,364.062 46.109,369.270 42.388 C 385.062 31.104,398.119 13.466,392.792 10.615 C 389.968 9.103,380.079 11.981,377.527 15.056 C 376.449 16.355,375.704 15.684,375.704 13.417 C 375.704 9.830,373.045 9.188,366.649 11.232 M371.981 14.609 C 372.630 16.556,351.676 40.306,350.145 39.360 C 348.474 38.327,362.779 19.257,368.133 15.379 C 370.554 13.625,371.584 13.419,371.981 14.609 M390.017 15.173 C 389.432 18.371,369.447 40.302,367.957 39.381 C 367.051 38.821,371.145 31.944,376.232 25.481 C 382.847 17.079,390.749 11.169,390.017 15.173 M243.015 16.097 C 245.489 20.720,240.842 29.647,233.512 34.351 C 228.409 37.626,228.246 36.557,232.496 27.659 C 236.965 18.300,241.517 13.297,243.015 16.097 M100.092 18.827 C 99.247 20.043,96.875 23.970,94.821 27.556 C 82.116 49.737,82.583 48.734,82.423 54.219 C 82.217 61.265,84.448 63.230,89.782 60.699 C 92.621 59.352,93.692 57.911,94.016 55.009 C 94.258 52.842,94.181 52.585,93.521 53.349 C 93.092 53.847,92.207 54.247,91.556 54.238 C 89.494 54.211,90.465 51.801,97.174 40.296 L 103.568 29.333 106.895 29.156 C 110.809 28.947,112.363 25.481,108.543 25.481 C 106.025 25.481,105.992 25.092,108.196 21.331 C 110.948 16.637,110.925 16.591,105.926 16.605 C 101.641 16.618,101.626 16.624,100.092 18.827 M55.297 20.711 C 53.008 22.107,47.651 29.104,44.602 34.683 C 42.220 39.041,41.901 39.280,35.135 41.772 C 30.168 43.601,27.053 45.543,26.775 46.984 C 26.449 48.677,28.609 48.195,34.169 45.334 C 40.433 42.111,41.225 42.469,38.333 47.212 C 33.161 55.696,25.243 60.082,17.687 58.649 C 10.848 57.352,10.013 54.744,16.007 53.398 C 22.243 51.997,21.500 46.061,14.986 45.240 C 5.613 44.058,2.575 54.899,10.949 59.642 C 23.545 66.777,45.649 58.816,52.218 44.778 C 53.700 41.609,54.295 40.889,55.428 40.889 C 57.629 40.889,57.556 41.435,54.476 48.012 C 51.304 54.789,50.898 57.417,52.741 59.259 C 54.334 60.852,58.805 60.856,61.770 59.267 C 63.962 58.092,63.968 58.092,64.597 59.267 C 66.738 63.269,76.568 58.668,80.440 51.852 C 83.635 46.227,81.311 44.744,77.439 49.937 C 73.741 54.898,74.998 51.027,79.425 43.822 C 84.444 35.655,85.056 33.989,82.815 34.589 C 82.081 34.786,80.236 34.950,78.714 34.955 L 75.947 34.963 72.219 41.221 C 68.210 47.952,63.479 54.215,62.519 54.065 C 60.564 53.760,63.050 46.874,67.791 39.463 C 70.608 35.059,70.569 34.963,65.996 34.963 C 62.271 34.963,61.964 35.071,60.107 37.040 C 59.021 38.192,57.984 38.852,57.780 38.522 C 57.577 38.194,56.910 37.926,56.296 37.926 C 53.859 37.926,54.684 32.814,58.386 24.976 C 61.154 19.115,60.162 17.745,55.297 20.711 M199.939 22.825 C 198.464 25.076,198.065 31.407,199.398 31.407 C 201.888 31.407,207.263 27.707,207.938 25.528 C 209.272 21.229,212.747 18.935,211.769 22.999 C 209.998 30.364,202.254 36.704,197.984 34.287 C 193.737 31.884,193.654 28.735,197.698 23.439 C 199.801 20.685,201.678 20.170,199.939 22.825 M37.710 26.405 C 35.041 34.237,26.823 39.359,23.022 35.558 C 20.427 32.962,20.987 28.846,24.452 25.055 C 26.201 23.141,26.607 23.856,25.718 27.284 C 25.028 29.943,25.138 33.778,25.904 33.778 C 27.635 33.778,33.635 29.366,34.262 27.633 C 36.207 22.252,39.527 21.070,37.710 26.405 M248.092 25.380 C 246.738 26.876,246.800 30.942,248.195 32.204 C 251.240 34.961,256.000 32.786,256.000 28.638 C 256.000 24.629,250.735 22.460,248.092 25.380 M109.475 34.939 C 106.706 35.476,107.245 34.814,103.697 42.029 C 102.043 45.394,99.997 49.054,99.151 50.163 C 98.305 51.273,97.781 52.349,97.986 52.554 C 98.192 52.760,98.140 53.219,97.872 53.575 C 94.747 57.718,102.532 62.306,107.942 59.509 C 109.658 58.622,109.822 58.641,111.148 59.887 C 114.079 62.640,119.861 60.176,124.859 54.045 C 128.443 49.648,128.345 44.017,124.753 47.986 C 122.175 50.836,123.042 48.046,126.550 42.207 C 131.456 34.042,131.461 34.110,126.074 34.640 C 123.711 34.873,121.762 35.107,121.743 35.161 C 121.308 36.393,112.663 49.601,111.106 51.412 C 105.922 57.442,107.309 50.073,113.204 40.265 C 117.046 33.872,116.799 33.519,109.475 34.939 M131.890 38.120 C 127.906 42.026,126.858 44.444,129.150 44.444 C 129.783 44.444,130.468 44.173,130.673 43.842 C 130.877 43.511,131.288 43.390,131.586 43.574 C 131.884 43.758,130.265 47.626,127.990 52.169 C 125.714 56.712,123.852 60.566,123.852 60.733 C 123.852 60.900,125.702 61.037,127.964 61.037 L 132.077 61.037 135.779 53.875 C 141.017 43.739,146.536 38.694,147.066 43.556 C 147.334 46.020,149.890 46.381,151.345 44.160 C 153.332 41.127,153.341 43.350,151.354 46.648 C 144.868 57.420,148.749 63.931,159.765 60.758 C 165.731 59.039,174.931 48.196,171.242 47.231 C 170.068 46.924,170.075 46.866,171.539 44.709 C 178.551 34.376,166.150 30.622,156.366 40.117 C 154.857 41.582,153.460 42.518,153.262 42.198 C 153.064 41.878,153.299 41.286,153.784 40.883 C 157.779 37.568,152.075 34.485,146.592 36.995 C 143.053 38.615,142.633 38.539,141.399 36.050 C 139.884 32.995,136.327 33.769,131.890 38.120 M358.805 39.723 C 357.512 42.275,356.135 45.564,354.741 49.432 C 354.429 50.298,354.167 50.404,353.640 49.877 C 352.372 48.609,350.791 49.160,347.880 51.883 C 344.793 54.770,343.918 54.636,344.536 51.369 C 345.158 48.077,347.062 45.787,353.233 40.909 C 359.900 35.638,360.993 35.405,358.805 39.723 M244.326 37.748 C 243.004 38.004,241.325 40.639,236.805 49.551 C 234.549 54.000,233.906 58.854,235.378 60.326 C 236.361 61.309,241.580 61.269,241.580 60.278 C 241.580 59.267,246.672 48.178,249.554 42.912 C 250.818 40.603,251.852 38.403,251.852 38.024 C 251.852 37.347,247.260 37.178,244.326 37.748 M302.067 40.669 C 301.745 43.532,298.710 48.470,294.904 52.326 C 291.126 56.152,291.002 54.310,294.568 47.367 C 299.455 37.853,302.713 34.944,302.067 40.669 M168.654 39.354 C 169.173 40.706,167.328 43.594,164.428 45.971 C 159.475 50.029,160.274 46.030,165.531 40.444 C 167.526 38.324,168.172 38.099,168.654 39.354 M327.473 39.365 C 328.029 40.813,318.071 54.861,316.971 54.181 C 315.212 53.094,318.024 47.192,322.715 42.125 C 326.186 38.375,326.928 37.945,327.473 39.365 M165.861 51.455 C 162.765 55.031,157.964 57.266,157.269 55.454 C 156.679 53.916,158.175 52.259,161.031 51.287 C 162.583 50.759,164.515 49.961,165.326 49.512 C 167.665 48.218,167.906 49.092,165.861 51.455 " stroke="none" fill="#ffffff" fill-rule="evenodd" fill-opacity="1"/></g></g></svg>