<svg xmlns="http://www.w3.org/2000/svg" version="1.0" width="1205.000000" height="235.000000" preserveAspectRatio="xMidYMid meet"><rect id="backgroundrect" width="100%" height="100%" x="0" y="0" fill="none" stroke="none"/>
<metadata>
Created by potrace 1.15, written by Peter Selinger 2001-2017
</metadata>

<g class="currentLayer" style=""><title>Layer 1</title><g transform="translate(0,235) scale(0.10000000149011612,-0.10000000149011612) " fill="#ffffff" stroke="none" id="svg_1" class="selected" fill-opacity="1">
<path d="M6314 2158 c-25 -68 -90 -235 -144 -373 -53 -137 -137 -353 -185 -480 -111 -288 -264 -684 -357 -923 -39 -100 -76 -182 -83 -182 -12 0 -74 68 -162 180 -28 36 -63 76 -78 90 -15 14 -51 57 -80 95 -28 39 -157 196 -286 350 -277 331 -279 334 -279 351 0 10 155 199 399 484 31 36 103 122 161 190 58 68 138 161 178 207 116 132 139 123 -312 123 l-385 0 -34 -42 c-19 -24 -132 -169 -251 -323 -239 -311 -259 -335 -275 -335 -8 0 -11 99 -11 350 l0 350 -310 0 -310 0 0 -1065 0 -1065 315 0 315 0 0 375 c0 206 4 375 8 375 15 0 59 -54 380 -470 58 -74 134 -170 169 -212 l65 -78 708 0 c390 0 716 3 725 6 22 9 36 38 90 194 44 126 93 261 282 780 41 113 81 223 89 245 16 46 31 72 37 65 5 -6 102 -276 242 -675 58 -165 131 -369 161 -452 l56 -153 334 0 c389 0 356 -15 298 133 -20 51 -76 200 -124 332 -80 217 -314 839 -440 1170 -87 227 -174 441 -190 465 -23 33 -78 39 -392 39 l-276 1 -48 -122z" id="svg_2" fill="#ffffff" fill-opacity="1"/>
<path d="M8053 2274 c-10 -4 -13 -228 -13 -1070 l0 -1064 320 0 320 0 0 317 c0 369 -12 354 116 153 44 -69 127 -199 185 -288 66 -105 114 -169 131 -178 23 -12 93 -14 395 -12 322 3 368 5 371 18 2 15 -44 77 -359 487 -256 333 -264 344 -248 354 8 5 48 28 89 51 125 69 212 176 268 330 25 67 27 85 27 223 -1 136 -3 158 -28 230 -73 219 -230 375 -432 431 -52 14 -135 17 -595 20 -294 2 -541 1 -547 -2z m827 -522 c105 -54 146 -159 101 -257 -40 -86 -110 -125 -224 -125 l-74 0 -7 31 c-8 40 -8 342 0 363 5 13 22 16 79 16 60 0 82 -5 125 -28z" id="svg_3" fill="#ffffff" fill-opacity="1"/>
<path d="M97 2263 c-4 -3 -7 -483 -7 -1065 l0 -1058 310 0 310 0 0 423 0 422 340 -3 340 -3 0 -414 0 -415 310 0 310 0 0 1055 0 1055 -310 0 -310 0 0 -385 0 -385 -340 0 -340 0 -2 388 -3 387 -301 3 c-165 1 -303 -1 -307 -5z" id="svg_4" fill="#ffffff" fill-opacity="1"/>
<path d="M2450 1205 l0 -1065 304 0 304 0 8 118 c11 149 12 1924 1 1975 l-8 37 -304 0 -305 0 0 -1065z" id="svg_5" fill="#ffffff" fill-opacity="1"/>
<path d="M10074 2256 c-3 -7 -3 -344 -1 -747 4 -799 4 -798 63 -944 63 -154 206 -305 364 -385 120 -61 341 -110 495 -110 150 0 328 39 464 101 236 109 415 321 476 564 16 64 18 137 17 794 0 413 -4 727 -9 732 -5 5 -139 8 -304 7 l-294 -3 -6 -640 c-7 -679 -11 -742 -55 -833 -56 -115 -229 -172 -384 -126 -39 12 -66 29 -105 67 -94 94 -89 52 -95 842 l-5 690 -308 3 c-255 2 -308 0 -313 -12z" id="svg_6" fill="#ffffff" fill-opacity="1"/>
</g></g></svg>