<svg xmlns="http://www.w3.org/2000/svg" version="1.0" width="600.000000" height="300.000000" preserveAspectRatio="xMidYMid meet"><rect id="backgroundrect" width="100%" height="100%" x="0" y="0" fill="none" stroke="none"/>
<metadata>
Created by potrace 1.15, written by Peter Selinger 2001-2017
</metadata>

<g class="currentLayer" style=""><title>Layer 1</title><g transform="translate(0,300) scale(0.10000000149011612,-0.10000000149011612) " fill="#ffffff" stroke="none" id="svg_1" class="selected" fill-opacity="1">
<path d="M520 2119 c-32 -13 -78 -56 -96 -91 -8 -15 -32 -78 -54 -140 -22 -62 -43 -120 -47 -128 -3 -8 -7 -19 -8 -25 -7 -32 -89 -252 -97 -262 -6 -7 -8 -13 -5 -13 8 0 -30 -110 -44 -126 -6 -8 -9 -14 -6 -14 7 0 -87 -269 -108 -310 -9 -17 -13 -30 -11 -30 3 0 -1 -18 -9 -40 l-14 -41 90 3 91 3 178 508 c98 280 184 515 191 523 15 18 63 18 81 0 8 -7 49 -110 92 -227 43 -118 84 -227 91 -244 l14 -30 14 35 c8 19 49 130 92 245 43 116 82 216 87 223 6 6 23 12 37 12 15 0 34 -6 43 -12 14 -11 134 -333 141 -378 2 -8 6 -21 10 -27 13 -21 46 -123 40 -123 -3 0 0 -6 6 -13 6 -8 12 -22 14 -33 1 -10 6 -24 10 -31 4 -7 39 -102 76 -212 38 -110 72 -205 76 -211 8 -13 175 -14 175 -1 0 19 -391 1116 -405 1137 -8 13 -31 35 -52 51 -31 24 -47 28 -113 31 -117 6 -169 -29 -235 -158 l-18 -34 -25 49 c-56 112 -104 145 -207 144 -38 0 -81 -5 -95 -10z" id="svg_2" fill="#ffffff" fill-opacity="1"/>
<path d="M1794 2112 c-28 -10 -65 -29 -82 -42 -38 -31 -78 -101 -92 -164 -14 -65 -14 -718 0 -782 16 -68 55 -135 98 -165 72 -51 120 -60 317 -59 236 1 306 20 365 101 63 87 65 106 65 514 0 340 -2 375 -20 430 -26 80 -91 147 -166 169 -79 24 -414 22 -485 -2z m438 -186 c66 -44 68 -55 67 -406 -1 -173 -5 -329 -10 -346 -25 -82 -111 -110 -303 -100 -123 6 -158 20 -191 76 -19 33 -20 51 -20 365 0 367 1 375 68 416 29 17 49 19 194 18 150 -1 165 -2 195 -23z" id="svg_3" fill="#ffffff" fill-opacity="1"/>
<path d="M1869 1905 c-57 -31 -58 -34 -59 -389 -1 -433 -13 -410 227 -411 138 0 154 2 180 21 15 11 33 36 40 55 15 43 18 597 3 651 -6 20 -24 48 -41 62 -30 25 -34 26 -177 26 -107 -1 -154 -5 -173 -15z m229 -385 c3 -236 2 -240 -59 -240 -61 0 -59 -8 -59 237 l0 224 58 -3 57 -3 3 -215z" id="svg_4" fill="#ffffff" fill-opacity="1"/>
<path d="M2510 2040 l0 -90 258 -1 c282 0 321 -2 331 -16 3 -5 13 -12 22 -15 9 -4 24 -23 35 -45 17 -35 19 -63 19 -358 0 -360 -2 -373 -73 -417 -33 -20 -51 -22 -234 -26 l-198 -5 0 327 0 326 -80 0 -80 0 0 -410 0 -410 293 0 c333 0 370 6 438 67 93 84 101 133 97 588 l-3 360 -32 66 c-23 46 -45 75 -72 93 -74 51 -109 56 -428 56 l-293 0 0 -90z" id="svg_5" fill="#ffffff" fill-opacity="1"/>
<path d="M3627 2116 c-48 -17 -106 -58 -144 -99 -32 -36 -83 -132 -83 -157 0 -9 -3 -19 -6 -23 -6 -5 -5 -611 1 -652 1 -11 8 -36 16 -55 7 -19 11 -35 9 -35 -2 0 5 -11 17 -25 12 -14 37 -45 57 -68 20 -24 36 -41 36 -36 0 4 8 0 18 -9 10 -9 36 -24 57 -33 35 -15 49 -20 82 -25 4 -1 126 -1 271 0 l262 1 0 84 0 84 -252 4 c-248 3 -254 3 -298 28 -49 28 -84 73 -100 129 -13 47 -13 525 0 572 15 54 51 101 95 126 39 22 49 23 298 23 l257 0 0 90 0 90 -277 0 c-208 -1 -288 -4 -316 -14z" id="svg_6" fill="#ffffff" fill-opacity="1"/>
<path d="M4260 1650 c1 -385 4 -485 15 -507 7 -15 15 -34 17 -42 2 -8 10 -24 20 -35 59 -74 88 -107 88 -100 0 4 8 0 18 -9 19 -18 86 -48 115 -54 40 -7 1187 -8 1187 0 0 4 3 6 8 5 16 -6 120 62 156 102 21 23 52 72 70 109 l31 66 0 330 0 330 -32 67 c-41 87 -100 150 -176 188 l-60 30 -429 0 -428 0 0 -90 0 -90 404 0 c259 0 407 -4 411 -10 3 -5 13 -10 21 -10 24 0 82 -60 99 -102 12 -31 15 -90 15 -316 0 -246 -2 -281 -19 -317 -23 -52 -81 -102 -128 -112 -21 -4 -272 -8 -558 -8 l-520 0 -45 25 c-49 28 -84 73 -100 129 -6 21 -10 210 -10 469 l0 432 -85 0 -86 0 1 -480z" id="svg_7" fill="#ffffff" fill-opacity="1"/>
<path d="M4468 1685 c-2 -245 -1 -446 2 -448 3 -1 16 -24 30 -51 39 -78 47 -80 381 -86 431 -8 756 1 795 22 78 42 104 112 104 273 l0 95 -265 0 -265 0 0 -90 0 -90 180 0 c163 0 209 -7 164 -24 -9 -3 -219 -6 -468 -6 -338 0 -455 3 -464 12 -9 9 -12 117 -12 425 l0 413 -90 0 -90 0 -2 -445z" id="svg_8" fill="#ffffff" fill-opacity="1"/>
<path d="M583 1908 c-6 -7 -28 -67 -51 -133 -66 -195 -211 -619 -218 -635 -4 -8 -9 -24 -11 -34 -2 -11 -8 -25 -14 -33 -6 -7 -9 -13 -6 -13 3 0 -8 -36 -24 -80 l-29 -81 92 3 92 3 99 303 c55 167 101 302 102 300 2 -2 6 -16 9 -32 3 -15 10 -34 16 -41 7 -8 9 -19 5 -25 -3 -5 -1 -10 4 -10 6 0 11 -9 11 -19 0 -11 5 -23 11 -26 6 -4 8 -13 5 -21 -3 -8 -2 -14 3 -14 8 0 24 -41 25 -65 1 -5 4 -12 7 -15 3 -3 34 -80 69 -172 34 -93 66 -168 70 -168 3 0 58 137 120 305 63 167 116 303 117 301 1 -1 4 -11 6 -22 1 -10 5 -23 9 -29 3 -5 12 -30 19 -55 16 -56 15 -52 22 -70 19 -44 35 -99 30 -104 -4 -3 -1 -6 5 -6 9 0 23 -41 24 -67 0 -5 3 -12 8 -18 4 -5 24 -60 44 -122 l37 -112 88 -3 88 -3 -88 255 c-48 140 -126 367 -173 504 -47 138 -90 254 -95 259 -5 5 -19 7 -32 5 -21 -3 -31 -23 -84 -168 -33 -91 -64 -174 -69 -185 -11 -23 -10 -20 -20 -62 -4 -18 -12 -33 -17 -33 -6 0 -8 -4 -5 -8 3 -5 -1 -21 -9 -35 -15 -29 -15 -29 -15 -52 0 -47 -27 14 -115 258 -54 149 -103 275 -109 279 -17 12 -42 9 -53 -4z" id="svg_9" fill="#ffffff" fill-opacity="1"/>
<path d="M2510 1830 l0 -90 225 0 c212 0 225 -1 235 -19 11 -21 14 -370 4 -409 -8 -26 -48 -39 -69 -22 -12 10 -15 48 -15 216 l0 204 -90 0 -90 0 0 -300 0 -300 175 0 c193 0 216 5 240 55 21 47 23 638 1 690 -26 62 -43 65 -346 65 l-270 0 0 -90z" id="svg_10" fill="#ffffff" fill-opacity="1"/>
<path d="M3672 1893 c-59 -38 -72 -83 -72 -245 l0 -128 260 0 260 0 0 90 0 90 -181 0 c-166 0 -180 1 -177 18 3 15 23 17 231 20 l227 2 0 90 0 90 -253 0 -253 0 -42 -27z" id="svg_11" fill="#ffffff" fill-opacity="1"/>
<path d="M4860 1830 l0 -90 375 0 c368 0 375 0 375 -20 0 -19 -7 -20 -180 -20 l-180 0 0 -90 0 -90 266 0 266 0 -4 133 c-3 118 -6 137 -28 177 -14 24 -40 55 -59 67 l-34 23 -398 0 -399 0 0 -90z" id="svg_12" fill="#ffffff" fill-opacity="1"/>
<path d="M3599 1388 c-2 -138 0 -149 23 -193 17 -32 64 -77 89 -84 8 -3 125 -7 262 -9 l247 -4 0 91 0 91 -214 0 c-118 0 -221 3 -230 6 -45 17 1 24 164 24 l180 0 0 90 0 90 -260 0 -260 0 -1 -102z" id="svg_13" fill="#ffffff" fill-opacity="1"/>
</g></g></svg>