<svg xmlns="http://www.w3.org/2000/svg" version="1.0" width="600.000000" height="300.000000" preserveAspectRatio="xMidYMid meet"><rect id="backgroundrect" width="100%" height="100%" x="0" y="0" fill="none" stroke="none"/>
<metadata>
Created by potrace 1.15, written by Peter Selinger 2001-2017
</metadata>

<g class="currentLayer" style=""><title>Layer 1</title><g transform="translate(0,300) scale(0.10000000149011612,-0.10000000149011612) " fill="#ffffff" stroke="none" id="svg_1" class="selected" fill-opacity="1">
<path d="M3415 2974 c-89 -21 -108 -30 -134 -59 -18 -21 -31 -49 -35 -78 l-7 -46 -42 19 c-57 26 -167 26 -224 0 -45 -20 -83 -69 -83 -107 0 -13 -18 -36 -49 -62 -61 -51 -113 -129 -148 -218 -47 -124 -29 -290 40 -377 32 -40 54 -30 62 28 5 31 2 60 -8 91 -14 40 -9 62 8 35 16 -25 45 -8 70 40 21 42 24 56 16 90 -9 42 -2 51 19 25 17 -21 36 -19 78 7 34 21 35 21 28 2 -53 -125 -65 -206 -46 -297 19 -95 109 -201 155 -183 20 7 20 104 0 130 -21 27 -19 46 5 46 15 0 20 7 20 26 0 14 -4 33 -9 42 -4 9 -11 31 -15 47 -6 24 -5 28 5 18 37 -36 89 21 89 97 0 43 0 43 21 25 17 -16 25 -17 50 -8 27 11 30 10 23 -5 -4 -9 -10 -42 -12 -73 -3 -51 -1 -60 26 -90 26 -29 36 -33 90 -37 59 -4 63 -3 91 27 20 21 32 48 38 82 l8 50 78 -117 c42 -64 105 -172 140 -240 34 -68 67 -124 74 -124 6 0 25 24 42 53 17 28 36 59 42 68 7 9 9 27 5 42 -12 50 -149 240 -242 337 l-94 98 46 -10 c41 -9 48 -8 70 13 l24 22 0 -40 c0 -28 6 -46 21 -59 20 -18 22 -18 51 -1 l30 17 -6 -42 c-7 -53 3 -72 38 -66 25 5 26 3 26 -38 0 -81 25 -99 54 -38 25 54 30 146 12 244 -8 46 -13 86 -11 88 2 2 17 -5 33 -17 35 -25 58 -27 66 -6 10 26 26 16 26 -16 0 -35 62 -129 85 -129 32 0 32 188 0 249 -26 51 -96 114 -172 154 -57 30 -72 43 -90 81 -30 62 -84 96 -161 103 -50 5 -62 9 -71 29 -16 36 -66 56 -150 60 -42 1 -85 1 -96 -2z" id="svg_2" fill="#ffffff" fill-opacity="1"/>
<path d="M2383 2521 c-50 -39 -215 -217 -488 -525 -151 -170 -229 -261 -498 -580 l-148 -176 -147 3 -148 2 -43 -30 c-23 -16 -63 -44 -87 -61 -92 -64 -110 -95 -84 -145 22 -40 68 -54 202 -59 l126 -5 -157 -195 c-227 -282 -301 -382 -301 -406 0 -12 9 -32 19 -45 18 -22 27 -24 108 -24 74 0 97 5 146 27 95 45 129 84 401 469 l125 177 173 5 c139 4 194 10 282 31 61 15 133 29 160 32 l51 6 28 -148 c35 -181 50 -231 86 -284 38 -57 76 -80 132 -80 25 0 66 -7 92 -16 37 -12 50 -13 69 -3 66 34 72 66 33 158 -45 108 -89 371 -62 380 21 7 67 59 67 76 0 21 -53 75 -74 75 -16 0 -19 28 -21 230 -1 112 14 435 25 524 12 103 41 258 71 390 27 112 23 191 -11 218 -35 29 -73 23 -127 -21z m-278 -882 c-14 -107 -28 -250 -31 -318 l-7 -124 -161 7 c-89 4 -196 11 -239 14 l-78 7 77 95 c170 208 452 525 461 516 2 -1 -8 -90 -22 -197z" id="svg_3" fill="#ffffff" fill-opacity="1"/>
<path d="M4035 1966 c-58 -27 -119 -85 -147 -141 -12 -22 -41 -64 -64 -93 -49 -61 -52 -74 -24 -102 33 -33 58 -24 134 48 53 50 84 72 118 81 85 24 138 -7 138 -79 0 -100 -54 -184 -235 -360 -199 -196 -214 -219 -179 -293 27 -56 98 -74 166 -43 18 8 69 30 113 49 44 19 132 58 195 87 63 29 237 102 385 163 452 184 471 192 499 210 31 21 33 33 5 47 -62 34 -581 -101 -923 -239 l-145 -59 59 67 c75 84 196 268 228 346 20 50 23 72 20 145 -4 99 -24 137 -88 170 -58 29 -187 27 -255 -4z" id="svg_4" fill="#ffffff" fill-opacity="1"/>
<path d="M3269 1753 c-100 -84 -438 -504 -599 -743 -24 -36 -50 -70 -58 -76 -8 -5 -16 -31 -19 -57 -5 -44 -4 -46 22 -53 16 -4 30 -2 34 4 3 6 18 13 32 17 15 4 33 19 40 33 8 15 17 29 20 32 3 3 31 44 62 93 116 180 356 503 389 523 8 5 9 1 4 -12 -16 -42 -65 -254 -76 -327 -14 -95 -2 -117 62 -117 53 0 106 51 223 215 52 71 105 144 119 160 l26 30 -21 -55 c-11 -30 -31 -82 -44 -115 -59 -151 -68 -211 -39 -253 13 -18 25 -22 73 -22 48 0 64 5 98 30 49 36 73 70 73 105 0 37 -24 41 -56 8 l-29 -28 -3 23 c-2 13 12 70 32 126 39 114 76 257 76 297 0 41 -32 63 -81 55 -59 -9 -104 -49 -216 -189 -53 -67 -101 -126 -106 -132 -14 -14 -3 28 44 182 36 115 40 140 34 188 -3 30 -11 55 -16 55 -5 0 -9 7 -9 15 0 25 -55 18 -91 -12z" id="svg_5" fill="#ffffff" fill-opacity="1"/>
<path d="M3937 1662 l-57 -58 11 -75 12 -75 86 4 c47 2 90 8 95 12 9 9 -4 80 -35 183 -15 49 -24 67 -37 67 -10 0 -43 -26 -75 -58z" id="svg_6" fill="#ffffff" fill-opacity="1"/>
<path d="M4030 1004 c-52 -24 -100 -44 -106 -44 -14 0 -24 -69 -24 -160 l0 -67 -92 -7 c-369 -27 -675 -90 -945 -193 -55 -21 -93 -41 -93 -49 0 -12 156 -14 971 -14 1096 0 1023 -6 899 78 -106 71 -255 139 -355 163 l-92 21 -7 71 c-17 184 -28 247 -45 246 -9 0 -59 -21 -111 -45z" id="svg_7" fill="#ffffff" fill-opacity="1"/>
</g></g></svg>