<svg xmlns="http://www.w3.org/2000/svg" version="1.0" width="2277.000000" height="460.000000" preserveAspectRatio="xMidYMid meet" style=""><rect id="backgroundrect" width="100%" height="100%" x="0" y="0" fill="none" stroke="none"/>
<metadata>
Created by potrace 1.15, written by Peter Selinger 2001-2017
</metadata>

<g class="currentLayer" style=""><title>Layer 1</title><g transform="translate(0,460) scale(0.10000000149011612,-0.10000000149011612) " fill="#ffffff" stroke="none" id="svg_1" class="selected" fill-opacity="1">
<path d="M11065 4579 c-356 -36 -728 -170 -1028 -370 -140 -94 -222 -162 -358 -298 -350 -351 -568 -786 -646 -1291 -24 -159 -24 -491 0 -650 78 -506 294 -937 646 -1291 136 -136 214 -200 359 -298 579 -388 1334 -487 2002 -261 175 58 299 115 440 200 615 370 1012 974 1105 1684 19 140 19 448 1 586 -130 962 -832 1734 -1768 1944 -226 51 -524 69 -753 45z m375 -699 c391 -35 722 -190 1000 -469 291 -292 448 -645 467 -1051 32 -703 -418 -1358 -1086 -1580 -347 -115 -672 -116 -1011 -4 -573 191 -995 701 -1079 1307 -18 127 -14 339 9 473 129 752 773 1308 1545 1333 22 0 92 -4 155 -9z" id="svg_2" fill="#ffffff" fill-opacity="1"/>
<path d="M21450 4495 l0 -65 95 0 95 0 0 -300 0 -300 75 0 75 0 0 300 0 300 105 0 105 0 0 65 0 65 -275 0 -275 0 0 -65z" id="svg_3" fill="#ffffff" fill-opacity="1"/>
<path d="M22020 4201 l0 -358 53 -7 c28 -3 62 -6 74 -6 l23 0 2 219 3 219 129 -220 c71 -120 132 -216 136 -211 5 4 48 104 96 222 l89 214 3 -222 2 -221 70 0 70 0 0 365 0 365 -77 0 -78 0 -95 -219 -95 -218 -100 218 -100 218 -102 1 -103 0 0 -359z" id="svg_4" fill="#ffffff" fill-opacity="1"/>
<path d="M20307 2958 c-4 -875 -7 -1847 -7 -2160 l0 -568 349 0 349 0 6 133 c3 72 7 1044 9 2160 l2 2027 -351 0 -351 0 -6 -1592z" id="svg_5" fill="#ffffff" fill-opacity="1"/>
<path d="M17805 3125 l-1169 -1375 -27 27 c-15 16 -537 620 -1159 1343 -622 723 -1135 1317 -1141 1318 -5 2 -9 -784 -9 -2102 l0 -2106 350 0 350 0 2 1127 3 1128 803 -955 c442 -525 807 -956 811 -958 4 -1 370 433 812 966 l804 968 6 -1085 c3 -597 7 -1110 8 -1138 l1 -53 370 0 370 0 0 2135 c0 1174 -3 2135 -7 2135 -5 0 -534 -619 -1178 -1375z" id="svg_6" fill="#ffffff" fill-opacity="1"/>
<path d="M3225 3148 c7 -1307 7 -1343 -11 -1327 -138 118 -3186 2629 -3191 2629 -6 0 0 -4161 6 -4192 0 -5 138 -8 306 -8 l305 0 2 1351 3 1351 1632 -1326 c897 -729 1634 -1326 1637 -1326 3 0 6 943 6 2095 l0 2095 -351 0 -352 0 8 -1342z" id="svg_7" fill="#ffffff" fill-opacity="1"/>
<path d="M5950 3120 l-733 -1330 -409 0 -408 0 0 -325 0 -325 244 -2 244 -3 -264 -449 c-145 -247 -264 -450 -264 -452 0 -2 177 -4 393 -4 l393 0 250 455 249 455 1040 -1 1040 0 236 -452 237 -452 421 -3 c231 -1 421 1 421 4 0 13 -2343 4214 -2350 4214 -4 0 -337 -598 -740 -1330z m1102 -643 l366 -672 -369 -3 c-203 -1 -535 -1 -739 0 l-370 3 367 673 c202 369 369 672 372 672 3 0 171 -303 373 -673z" id="svg_8" fill="#ffffff" fill-opacity="1"/>
</g></g></svg>