<svg xmlns="http://www.w3.org/2000/svg" version="1.0" width="974.000000" height="270.000000" preserveAspectRatio="xMidYMid meet" style=""><rect id="backgroundrect" width="100%" height="100%" x="0" y="0" fill="none" stroke="none"/>
<metadata>
Created by potrace 1.15, written by Peter Selinger 2001-2017
</metadata>

<g class="currentLayer" style=""><title>Layer 1</title><g transform="translate(0,270) scale(0.10000000149011612,-0.10000000149011612) " fill="#ffffff" stroke="none" id="svg_1" class="selected" fill-opacity="1">
<path d="M840 2511 c-382 -81 -647 -431 -626 -826 7 -134 24 -202 81 -320 52 -107 135 -210 227 -279 l67 -51 -189 -3 -190 -2 0 -405 0 -405 999 0 c1097 0 1093 0 1251 60 81 32 204 111 238 154 l20 26 266 0 266 0 0 -120 0 -120 370 0 369 0 7 38 c15 85 77 158 153 181 28 8 391 11 1332 11 1240 0 1296 -1 1335 -19 60 -27 87 -72 92 -148 l4 -63 402 0 401 0 910 1140 c501 627 911 1147 913 1155 3 13 -89 15 -755 15 l-758 -1 -246 -387 -245 -387 -50 -3 -49 -2 -300 390 -300 390 -522 -3 c-512 -2 -522 -2 -550 -23 -15 -11 -38 -36 -50 -54 -22 -31 -23 -43 -23 -216 l0 -184 -319 0 -319 0 -4 118 c-4 94 -9 126 -27 163 -35 74 -85 125 -159 161 l-67 33 -1935 2 c-1832 2 -1940 1 -2020 -16z m1604 -245 c18 -7 42 -25 53 -40 29 -37 43 -33 43 14 l0 40 1055 0 c1162 0 1105 3 1145 -62 17 -28 20 -50 20 -155 l0 -123 -460 0 -460 0 0 -765 0 -765 -190 0 -190 0 0 765 0 765 -1228 -2 -1228 -3 -41 -27 c-72 -48 -104 -158 -69 -241 15 -38 76 -94 109 -102 12 -2 258 -6 547 -8 576 -3 561 -2 691 -67 224 -114 355 -374 305 -610 -48 -228 -227 -408 -451 -455 -58 -12 -204 -15 -862 -15 l-793 0 0 185 0 185 753 0 c494 0 765 4 790 11 47 13 106 63 123 106 27 64 11 166 -34 216 -9 11 -34 28 -54 38 -35 18 -66 19 -530 19 -395 0 -507 3 -563 15 -259 55 -448 282 -448 540 0 255 188 484 443 539 95 21 1475 23 1524 2z m4578 -531 c258 -297 477 -541 487 -543 13 -2 129 139 445 543 l428 545 294 0 c250 0 294 -2 287 -14 -4 -8 -312 -428 -683 -935 l-675 -920 -96 -1 -96 0 -714 917 c-393 504 -720 925 -727 935 -13 18 -3 18 284 16 l298 -3 468 -540z m-642 -470 l0 -195 -915 0 -915 0 0 188 c0 104 3 192 7 195 3 4 415 7 915 7 l908 0 0 -195z" id="svg_2" fill="#ffffff" fill-opacity="1"/>
</g></g></svg>