<svg xmlns="http://www.w3.org/2000/svg" xmlns:xlink="http://www.w3.org/1999/xlink" width="400,167.8793256433008" height="undefined"><rect id="backgroundrect" width="100%" height="100%" x="0" y="0" fill="none" stroke="none"/><g class="currentLayer" style=""><title>Layer 1</title><g id="svgg" class="selected" fill="#ffffff" fill-opacity="1"><path id="path0" d="M118.190 4.623 C 112.627 5.181,107.849 6.987,102.396 10.592 C 101.029 11.495,98.509 13.634,96.796 15.345 L 93.681 18.456 91.568 18.456 C 87.649 18.456,84.009 20.597,81.603 24.317 C 80.142 26.576,80.140 26.577,78.136 26.796 C 77.034 26.917,75.012 27.181,73.644 27.384 C 71.622 27.685,70.792 27.650,69.207 27.198 C 67.871 26.818,65.137 26.593,60.515 26.484 C 55.435 26.364,53.445 26.186,52.452 25.762 C 51.726 25.453,50.821 25.200,50.441 25.200 C 50.023 25.200,49.240 24.505,48.458 23.439 C 45.201 19.003,43.458 18.419,34.179 18.656 C 30.314 18.755,26.433 18.793,25.555 18.740 C 20.773 18.456,18.277 18.671,16.535 19.517 C 7.487 23.909,2.248 45.174,8.114 53.699 C 11.747 58.980,19.865 61.103,26.250 58.442 C 29.951 56.900,31.996 58.227,29.450 60.519 C 27.967 61.853,24.219 67.618,22.414 71.340 C 19.672 76.993,18.563 81.256,17.383 90.683 C 17.212 92.050,16.815 94.925,16.502 97.072 C 16.189 99.219,15.709 102.573,15.435 104.525 C 15.162 106.477,14.774 109.193,14.575 110.559 C 14.375 111.925,13.978 114.720,13.692 116.770 C 13.035 121.480,12.167 127.590,11.471 132.387 C 10.205 141.131,10.461 144.337,12.828 149.330 C 19.210 162.798,39.351 165.064,49.999 153.512 C 53.628 149.576,55.449 145.686,56.415 139.806 C 57.211 134.970,56.704 135.357,62.546 135.112 C 71.904 134.719,79.872 132.205,87.134 127.353 L 89.264 125.930 90.861 127.683 C 97.624 135.106,109.022 137.274,118.049 132.854 L 119.861 131.967 121.599 132.848 C 128.388 136.289,137.972 135.642,145.075 131.265 C 146.399 130.450,146.270 130.266,147.113 134.161 C 150.153 148.203,160.862 158.788,175.350 162.069 C 194.231 166.346,209.038 155.746,209.049 137.944 L 209.051 134.450 210.914 134.710 C 225.606 136.758,241.637 131.367,252.946 120.573 L 254.428 119.159 258.092 122.858 C 269.373 134.244,287.613 138.647,299.713 132.905 C 300.928 132.329,301.034 132.336,302.661 133.111 C 308.677 135.978,316.921 135.968,323.122 133.086 L 325.214 132.113 326.848 132.930 C 332.399 135.706,340.712 135.688,347.044 132.888 L 349.045 132.003 350.654 132.875 C 355.992 135.769,365.493 135.683,371.405 132.689 C 379.971 128.349,383.671 122.475,385.289 110.642 C 386.013 105.352,386.628 100.977,388.071 90.861 C 388.363 88.811,388.862 85.297,389.179 83.052 C 389.496 80.807,389.984 77.374,390.263 75.421 C 390.908 70.900,391.338 67.841,391.984 63.177 C 392.267 61.127,393.094 55.457,393.820 50.577 C 396.395 33.267,395.444 27.766,388.831 21.722 C 382.643 16.067,371.196 14.710,362.994 18.659 C 361.689 19.287,361.623 19.285,360.155 18.574 C 352.256 14.745,340.157 16.279,333.822 21.911 C 329.446 25.803,325.821 32.213,325.821 36.061 C 325.821 36.695,325.670 37.984,325.486 38.926 C 325.302 39.868,324.883 42.518,324.555 44.815 C 323.837 49.847,323.967 49.744,320.768 47.823 C 303.905 37.697,279.474 40.856,263.767 55.191 C 260.361 58.300,260.719 58.268,258.604 55.661 C 252.943 48.684,239.970 42.236,231.594 42.236 C 230.761 42.236,229.572 42.134,228.951 42.010 L 227.821 41.784 228.052 39.082 C 229.379 23.516,213.575 11.731,198.580 17.105 C 189.500 20.360,183.784 27.318,182.454 36.735 C 180.836 48.193,181.139 47.576,177.915 45.963 C 172.200 43.104,168.174 42.268,159.539 42.148 C 153.376 42.062,153.154 42.033,153.256 41.349 C 156.608 18.876,140.829 2.349,118.190 4.623 M131.340 12.053 C 145.772 17.320,151.617 33.921,143.968 47.915 C 143.274 49.184,142.515 50.582,142.280 51.022 C 141.699 52.114,142.130 52.410,143.492 51.852 C 153.485 47.756,163.899 47.084,171.263 50.060 C 175.999 51.974,179.466 54.178,182.472 57.184 C 185.451 60.163,185.424 60.179,186.138 54.948 C 187.803 42.739,188.504 37.953,188.859 36.380 C 191.811 23.264,208.504 17.679,217.430 26.821 C 221.267 30.751,222.296 34.709,221.305 41.733 C 220.169 49.783,220.165 49.118,221.342 48.822 C 234.306 45.558,250.480 53.102,258.018 65.927 C 259.376 68.237,260.870 69.409,260.870 68.164 C 260.870 67.671,264.206 63.744,266.697 61.304 C 273.098 55.036,280.176 51.212,289.618 48.921 C 292.265 48.279,303.656 48.279,306.300 48.922 C 314.270 50.858,321.583 55.119,325.510 60.115 C 327.525 62.679,328.374 62.691,328.723 60.160 C 328.858 59.184,329.229 56.469,329.547 54.126 C 332.040 35.757,332.484 33.790,334.932 30.236 C 340.448 22.226,353.298 20.090,360.037 26.061 C 361.333 27.208,361.238 27.217,363.501 25.725 C 372.102 20.055,383.641 22.506,387.694 30.865 C 388.983 33.522,389.254 38.707,388.382 44.011 C 387.694 48.197,386.799 54.346,384.884 68.056 C 384.604 70.057,384.129 73.411,383.828 75.510 C 382.998 81.290,382.672 83.590,382.105 87.666 C 378.423 114.139,378.086 115.995,376.351 119.296 C 371.351 128.812,357.660 131.804,350.414 124.963 C 349.440 124.044,348.476 124.020,347.684 124.894 C 343.546 129.466,333.479 129.893,327.506 125.749 C 325.621 124.441,324.431 124.275,323.593 125.201 C 320.950 128.122,312.414 129.777,307.872 128.249 C 306.083 127.648,302.663 125.654,302.236 124.963 C 301.814 124.279,300.724 124.552,298.789 125.827 C 295.401 128.061,293.490 128.615,288.667 128.762 C 275.269 129.172,263.016 122.098,256.980 110.470 C 255.637 107.882,255.250 107.775,253.891 109.615 C 237.360 131.990,204.019 135.339,189.346 116.097 C 187.530 113.717,186.935 113.827,186.647 116.596 C 186.526 117.766,186.303 119.800,186.152 121.118 L 185.878 123.514 187.615 123.518 C 199.446 123.547,206.289 135.929,200.637 147.082 C 193.250 161.660,167.933 158.873,157.411 142.325 C 152.795 135.065,151.696 127.801,153.462 116.238 C 153.997 112.739,154.535 108.999,155.608 101.331 C 156.167 97.335,156.212 97.020,157.056 91.216 C 158.574 80.773,158.580 81.278,156.935 81.278 C 155.346 81.278,153.780 83.004,153.515 85.047 C 153.392 86.000,153.069 88.296,152.799 90.151 C 152.529 92.005,152.049 95.359,151.733 97.604 C 151.417 99.849,151.012 102.644,150.832 103.815 C 150.653 104.987,150.258 107.782,149.954 110.027 C 148.994 117.129,147.492 120.544,143.879 123.846 C 137.301 129.858,127.206 130.362,121.488 124.963 C 120.475 124.007,119.820 124.030,118.432 125.071 C 111.458 130.304,102.062 129.854,96.388 124.016 C 94.680 122.259,92.635 118.426,92.635 116.982 C 92.635 115.341,91.743 115.555,89.026 117.847 C 84.763 121.443,77.219 125.998,75.528 125.998 C 75.254 125.998,74.879 126.131,74.694 126.293 C 74.508 126.455,73.398 126.858,72.227 127.188 C 65.511 129.079,58.798 129.412,54.603 128.061 C 51.674 127.117,51.836 126.965,51.235 131.221 C 49.621 142.649,48.802 145.142,45.469 148.773 C 35.688 159.428,18.024 154.549,17.143 140.948 C 16.953 138.023,17.053 137.179,20.046 116.415 C 20.342 114.366,20.827 110.932,21.124 108.784 C 21.610 105.278,22.008 102.505,23.085 95.120 C 23.270 93.851,23.674 91.056,23.983 88.909 C 25.929 75.372,34.339 61.361,43.390 56.576 C 44.487 55.996,44.694 54.799,43.744 54.531 C 41.875 54.005,40.669 53.940,38.889 54.269 C 35.572 54.882,31.550 53.734,29.854 51.690 C 29.195 50.896,28.546 50.960,27.217 51.952 C 19.436 57.758,10.648 53.420,10.648 43.774 C 10.648 36.593,14.434 26.994,18.215 24.588 C 19.832 23.559,24.091 23.239,24.936 24.084 C 25.448 24.596,27.419 24.613,27.922 24.110 C 28.417 23.615,32.276 23.615,32.770 24.110 C 33.318 24.658,34.497 24.578,35.859 23.898 C 39.426 22.119,44.444 24.768,44.973 28.708 L 45.169 30.170 47.163 30.126 C 49.129 30.083,50.668 30.561,52.592 31.813 C 53.499 32.403,53.632 32.400,55.535 31.754 C 57.445 31.104,57.623 31.101,59.821 31.678 C 61.478 32.112,62.367 32.183,63.024 31.934 C 64.758 31.275,66.720 31.537,68.860 32.714 L 70.907 33.839 72.809 33.018 C 74.220 32.409,75.936 32.096,79.455 31.804 L 84.198 31.411 84.922 29.459 C 86.764 24.492,91.044 22.154,94.755 24.088 C 96.826 25.167,97.278 25.045,98.639 23.040 C 105.454 12.995,120.276 8.015,131.340 12.053 M118.722 17.533 C 118.527 17.603,117.649 17.861,116.770 18.106 C 98.875 23.102,93.076 48.194,108.084 55.690 C 109.961 56.627,110.004 56.849,108.609 58.437 C 106.285 61.084,106.056 62.096,103.449 81.278 C 103.144 83.523,102.752 86.158,102.577 87.134 C 102.402 88.110,102.164 89.787,102.049 90.861 C 101.933 91.934,101.688 93.771,101.503 94.942 C 101.319 96.114,100.919 98.909,100.615 101.154 C 100.310 103.398,99.807 106.842,99.496 108.805 C 98.120 117.519,100.442 121.606,107.010 122.029 C 113.603 122.452,118.223 118.117,119.042 110.736 C 119.161 109.663,119.409 107.826,119.594 106.655 C 119.778 105.484,120.184 102.689,120.495 100.444 C 120.807 98.199,121.290 94.765,121.570 92.813 C 121.849 90.861,122.322 87.507,122.620 85.359 C 122.918 83.212,123.313 80.497,123.498 79.326 C 123.683 78.154,124.090 75.200,124.403 72.760 C 124.716 70.319,125.123 67.458,125.308 66.400 C 125.856 63.257,125.722 60.642,124.933 59.095 C 123.963 57.191,124.025 56.908,125.528 56.413 C 142.112 50.939,145.842 27.376,131.410 19.254 C 129.063 17.934,120.749 16.806,118.722 17.533 M19.758 29.452 C 17.684 31.917,15.968 37.828,15.723 43.350 L 15.556 47.126 16.624 48.319 C 18.871 50.831,23.408 49.800,26.925 45.978 C 28.421 44.353,31.233 39.022,31.233 37.813 C 31.233 36.648,31.946 35.847,32.983 35.847 C 34.474 35.847,34.647 34.911,33.364 33.785 C 32.468 32.999,32.298 32.588,32.298 31.209 C 32.298 29.423,31.562 28.394,30.284 28.394 C 28.582 28.394,27.800 31.184,28.903 33.318 C 30.927 37.232,22.748 48.671,19.722 46.160 C 18.585 45.216,18.785 40.765,20.099 37.746 C 20.367 37.131,20.586 36.500,20.586 36.344 C 20.586 36.188,21.326 34.588,22.232 32.788 C 24.118 29.039,24.091 28.394,22.048 28.394 C 20.931 28.394,20.469 28.607,19.758 29.452 M36.935 29.060 C 35.784 31.212,37.971 33.360,39.544 31.621 C 40.691 30.354,40.177 28.592,38.621 28.463 C 37.610 28.379,37.228 28.514,36.935 29.060 M90.224 29.370 C 89.593 30.270,88.571 33.260,87.707 36.735 C 87.513 37.516,87.105 39.123,86.800 40.307 C 86.496 41.491,86.247 43.093,86.247 43.866 C 86.247 46.839,82.575 49.019,80.923 47.027 C 80.475 46.488,81.066 44.405,82.909 40.027 C 84.186 36.992,83.000 35.225,80.698 36.733 C 80.104 37.122,79.458 37.224,78.604 37.064 C 73.971 36.195,70.282 39.442,69.383 45.181 C 69.042 47.356,66.807 48.492,65.287 47.261 C 64.396 46.539,64.484 45.584,65.849 41.171 C 66.846 37.948,66.913 36.664,66.097 36.405 C 64.547 35.914,63.693 36.715,62.660 39.632 C 59.909 47.398,56.122 50.428,58.392 43.048 C 60.183 37.225,60.154 37.369,59.650 36.762 C 59.168 36.181,56.965 35.983,56.651 36.492 C 56.411 36.879,54.993 42.059,54.654 43.783 C 54.293 45.621,53.258 46.923,51.684 47.522 C 49.960 48.178,49.807 47.919,50.580 45.644 C 51.278 43.591,50.834 41.307,49.420 39.675 C 49.065 39.266,48.973 38.742,49.139 38.078 C 49.749 35.635,49.630 35.324,48.047 35.208 C 46.141 35.069,45.348 35.813,45.478 37.619 C 45.647 39.958,41.255 46.406,38.792 47.435 C 37.333 48.045,35.318 47.262,35.642 46.210 C 35.744 45.879,36.154 44.490,36.554 43.123 C 36.954 41.757,37.453 40.071,37.663 39.378 C 38.443 36.799,37.261 35.421,35.210 36.518 C 34.488 36.905,33.166 41.327,32.428 45.824 C 31.953 48.718,37.734 51.094,40.225 49.028 C 40.719 48.619,41.013 48.626,42.143 49.075 C 43.868 49.761,52.547 49.701,53.394 48.998 C 53.846 48.623,54.166 48.647,55.188 49.132 C 56.950 49.968,58.783 49.558,60.265 47.997 C 60.908 47.319,61.467 46.824,61.507 46.896 C 61.547 46.968,61.821 47.500,62.117 48.077 C 62.939 49.682,67.514 50.240,69.095 48.928 C 69.468 48.618,69.863 48.673,70.766 49.160 C 72.568 50.130,74.710 49.721,76.223 48.117 C 77.621 46.635,78.083 46.530,78.083 47.694 C 78.083 49.479,83.091 50.364,85.107 48.936 C 85.862 48.402,86.012 48.408,87.223 49.025 C 89.472 50.172,92.595 49.802,94.321 48.184 C 95.889 46.715,94.854 45.542,93.103 46.805 C 90.497 48.685,88.488 47.810,89.133 45.075 C 90.563 39.013,91.353 36.598,92.525 34.702 C 93.753 32.717,94.285 30.422,93.775 29.304 C 93.171 27.977,91.175 28.014,90.224 29.370 M203.135 29.422 C 201.460 29.854,198.962 31.421,197.852 32.735 C 195.984 34.944,195.526 36.566,194.310 45.253 C 194.010 47.400,193.522 50.834,193.225 52.884 C 192.928 54.933,192.449 58.287,192.159 60.337 C 191.870 62.387,191.485 65.022,191.304 66.193 C 191.123 67.365,190.883 69.042,190.770 69.920 C 190.657 70.799,190.417 72.555,190.237 73.824 C 190.057 75.093,189.653 77.968,189.339 80.213 C 189.025 82.458,188.611 85.173,188.419 86.247 C 184.471 108.325,200.640 125.084,222.620 121.696 C 260.240 115.898,268.721 63.360,233.293 55.575 C 222.593 53.223,215.432 57.524,215.437 66.296 C 215.441 71.807,218.042 74.138,224.808 74.697 C 242.198 76.132,237.606 102.218,219.964 102.218 C 211.030 102.218,206.621 96.078,208.241 85.892 C 208.474 84.428,208.919 81.393,209.231 79.148 C 209.543 76.903,209.961 74.028,210.160 72.760 C 210.360 71.491,210.667 69.335,210.842 67.968 C 211.018 66.602,211.412 63.727,211.716 61.579 C 212.021 59.432,212.418 56.477,212.599 55.013 C 212.779 53.549,213.084 51.393,213.276 50.222 C 215.698 35.432,215.270 32.267,210.514 29.820 C 209.476 29.285,204.666 29.026,203.135 29.422 M344.805 30.346 C 341.452 31.969,339.077 35.212,338.565 38.864 C 338.225 41.290,337.376 47.135,336.606 52.351 C 336.318 54.303,335.941 57.138,335.767 58.651 C 335.594 60.163,335.365 61.680,335.260 62.022 C 335.154 62.364,334.902 64.002,334.700 65.661 C 334.498 67.320,334.086 70.355,333.785 72.405 C 333.483 74.454,333.013 77.728,332.739 79.681 C 332.465 81.633,331.984 84.987,331.670 87.134 C 331.356 89.281,330.967 92.076,330.806 93.345 C 330.644 94.614,330.346 96.690,330.144 97.959 C 329.941 99.228,329.517 102.183,329.201 104.525 C 328.885 106.868,328.475 109.650,328.289 110.707 C 326.857 118.845,332.376 123.920,340.107 121.575 C 345.363 119.980,347.170 117.170,348.334 108.784 C 348.660 106.442,349.071 103.647,349.248 102.573 C 349.425 101.500,349.821 98.705,350.127 96.362 C 350.433 94.020,350.916 90.506,351.199 88.554 C 351.482 86.602,351.958 83.248,352.256 81.100 C 352.554 78.953,352.950 76.238,353.135 75.067 C 353.320 73.895,353.563 72.138,353.675 71.162 C 353.787 70.186,354.029 68.350,354.212 67.081 C 354.396 65.812,354.797 63.017,355.104 60.870 C 355.411 58.722,355.827 55.927,356.029 54.658 C 356.231 53.390,356.541 51.233,356.716 49.867 C 356.892 48.500,357.288 45.626,357.596 43.478 C 358.580 36.622,358.590 36.381,357.975 34.528 C 356.460 29.968,349.893 27.882,344.805 30.346 M368.424 30.615 C 365.726 31.968,363.792 34.258,362.984 37.053 C 362.509 38.695,362.284 40.091,361.286 47.560 C 360.942 50.137,360.191 55.433,359.373 61.047 C 359.075 63.097,358.664 66.051,358.461 67.613 C 358.258 69.175,358.022 70.692,357.937 70.985 C 357.852 71.278,357.617 72.875,357.415 74.534 C 357.213 76.193,356.817 79.148,356.535 81.100 C 355.249 90.000,354.858 92.694,354.375 96.007 C 354.090 97.959,353.700 100.834,353.509 102.396 C 353.318 103.957,352.978 106.114,352.752 107.187 C 350.421 118.288,355.780 124.686,364.635 121.372 C 369.988 119.370,371.267 116.852,372.834 105.235 C 373.720 98.667,374.415 93.732,374.785 91.393 C 374.970 90.222,375.213 88.465,375.323 87.489 C 375.434 86.513,375.678 84.756,375.865 83.585 C 376.052 82.413,376.455 79.618,376.761 77.374 C 377.888 69.111,378.361 65.789,378.705 63.709 C 378.899 62.538,379.223 60.302,379.425 58.740 C 379.626 57.178,380.024 54.303,380.309 52.351 C 380.593 50.399,380.985 47.516,381.181 45.945 C 381.376 44.373,381.697 42.235,381.895 41.193 C 383.702 31.661,376.935 26.346,368.424 30.615 M78.962 39.737 C 79.272 40.239,77.285 43.953,75.764 45.715 C 73.222 48.662,71.699 46.587,73.703 42.906 C 75.106 40.328,78.182 38.475,78.962 39.737 M47.560 43.539 C 47.560 45.673,45.557 47.991,44.568 47.001 C 43.747 46.181,43.869 45.628,45.316 43.615 C 46.615 41.807,47.560 41.775,47.560 43.539 M61.224 55.708 C 48.201 58.560,36.808 68.439,32.759 80.390 C 31.276 84.767,31.407 84.093,29.616 96.539 C 29.322 98.589,28.923 101.304,28.730 102.573 C 28.538 103.842,28.223 106.078,28.031 107.542 C 27.839 109.006,27.436 111.881,27.137 113.931 C 26.838 115.980,26.444 118.855,26.263 120.319 C 25.893 123.303,25.511 125.865,24.621 131.322 C 22.631 143.521,25.010 148.333,32.831 147.921 C 38.944 147.599,42.573 143.985,43.619 137.178 C 43.975 134.863,44.192 133.322,45.620 122.981 C 45.917 120.834,46.321 118.119,46.519 116.948 C 46.716 115.776,47.025 113.620,47.206 112.156 C 47.386 110.692,47.766 107.897,48.051 105.945 C 49.190 98.141,49.752 94.110,50.056 91.571 C 51.344 80.792,59.014 73.663,68.146 74.758 C 84.236 76.687,80.145 101.106,63.513 102.407 C 55.466 103.036,51.109 107.094,51.109 113.958 C 51.109 120.963,56.960 123.725,67.258 121.582 C 103.500 114.041,110.294 63.097,76.061 55.575 C 72.586 54.811,65.007 54.879,61.224 55.708 M152.618 55.716 C 141.372 58.412,131.980 66.938,128.562 77.551 C 127.872 79.696,127.221 83.340,126.186 90.861 C 125.877 93.106,125.471 95.901,125.284 97.072 C 125.097 98.243,124.772 100.479,124.561 102.041 C 124.350 103.602,123.950 106.557,123.671 108.607 C 122.377 118.132,124.795 122.094,131.904 122.094 C 139.178 122.094,142.297 117.979,143.743 106.477 C 143.927 105.013,144.313 102.218,144.600 100.266 C 145.513 94.062,146.272 88.631,146.583 86.065 C 147.982 74.544,160.805 70.090,164.671 79.782 C 165.213 81.140,165.009 83.638,163.636 92.458 C 163.454 93.629,163.050 96.424,162.738 98.669 C 162.427 100.914,161.941 104.348,161.659 106.300 C 161.378 108.252,160.898 111.686,160.594 113.931 C 160.290 116.176,159.888 118.783,159.701 119.725 C 156.981 133.433,164.947 146.431,177.772 149.211 C 188.699 151.579,195.905 147.464,195.915 138.850 C 195.922 133.015,193.429 130.681,186.556 130.085 C 180.356 129.547,178.392 126.027,179.748 117.886 C 180.029 116.199,180.518 112.902,180.834 110.559 C 181.151 108.217,181.556 105.342,181.735 104.170 C 181.914 102.999,182.310 100.204,182.615 97.959 C 183.341 92.613,184.150 86.959,184.575 84.254 C 186.253 73.571,182.307 64.109,173.937 58.745 C 168.460 55.236,159.770 54.001,152.618 55.716 M290.861 55.567 C 277.350 58.704,266.649 67.672,262.089 79.681 C 253.750 101.641,266.166 122.047,287.961 122.202 C 302.380 122.305,305.313 104.031,291.112 102.562 C 283.685 101.794,279.575 97.633,279.554 90.861 C 279.508 76.011,299.996 68.420,306.264 80.964 C 308.129 84.695,308.112 85.049,305.049 105.590 C 304.092 112.010,303.979 116.082,304.716 117.635 C 308.939 126.534,324.046 121.757,324.046 111.523 C 324.046 110.853,324.275 108.925,324.555 107.238 C 324.835 105.551,325.330 102.254,325.656 99.911 C 325.982 97.569,326.465 94.215,326.728 92.458 C 328.989 77.392,325.687 67.449,316.062 60.338 C 309.864 55.760,298.938 53.691,290.861 55.567 " stroke="none" fill="#ffffff" fill-rule="evenodd" fill-opacity="1"/></g></g></svg>