<svg xmlns="http://www.w3.org/2000/svg" version="1.0" width="1000.000000" height="356.000000" preserveAspectRatio="xMidYMid meet" style=""><rect id="backgroundrect" width="100%" height="100%" x="0" y="0" fill="none" stroke="none"/>
<metadata>
Created by potrace 1.15, written by Peter Selinger 2001-2017
</metadata>

<g class="currentLayer" style=""><title>Layer 1</title><g transform="translate(0,356) scale(0.10000000149011612,-0.10000000149011612) " fill="#ffffff" stroke="none" id="svg_1" class="selected" fill-opacity="1">
<path d="M6733 3227 c-122 -34 -227 -67 -233 -73 -9 -9 5 -95 54 -340 85 -427 188 -991 232 -1269 37 -232 57 -544 37 -579 -8 -15 -179 114 -1176 888 -759 589 -1174 906 -1189 906 -26 0 -425 -166 -450 -188 -10 -8 -18 -20 -18 -27 0 -7 36 -83 79 -169 124 -244 229 -527 295 -791 45 -183 90 -509 122 -880 14 -167 18 -192 36 -207 43 -38 118 -15 396 118 94 45 112 58 112 77 0 12 -44 286 -98 609 -54 322 -93 584 -87 580 5 -3 96 -74 200 -157 398 -316 1733 -1371 1793 -1417 35 -26 73 -48 86 -48 24 0 443 165 460 180 5 5 -1 59 -13 127 -11 66 -21 124 -21 130 0 7 35 -12 78 -41 413 -284 992 -332 1571 -131 199 69 389 171 450 240 62 71 61 159 -2 191 -25 13 -36 14 -74 3 -45 -12 -215 -109 -331 -188 -136 -92 -245 -122 -442 -123 -426 -2 -850 203 -1060 513 -147 215 -202 473 -170 788 41 398 205 570 520 547 282 -21 537 -151 770 -392 111 -115 169 -189 250 -317 41 -65 64 -93 80 -95 26 -4 386 143 414 169 19 17 18 19 -16 101 -73 171 -71 160 -66 350 5 150 9 185 32 262 46 153 95 275 183 458 50 103 83 183 80 192 -5 13 -24 16 -99 16 -300 0 -426 -94 -523 -390 -33 -101 -123 -332 -134 -343 -4 -4 -35 8 -67 27 -125 74 -345 143 -529 165 -129 16 -383 14 -490 -4 -230 -38 -383 -105 -537 -237 l-56 -48 -6 28 c-3 15 -35 203 -71 417 -36 215 -67 400 -70 413 -8 34 -52 28 -302 -41z" id="svg_2" fill="#ffffff" fill-opacity="1"/>
<path d="M2095 3274 c-22 -2 -96 -8 -165 -14 -267 -23 -567 -70 -840 -132 -394 -89 -699 -235 -798 -382 -27 -41 -32 -57 -32 -106 0 -78 10 -101 72 -167 61 -64 254 -212 354 -271 139 -82 203 -80 406 9 102 45 138 66 138 79 0 10 -35 43 -87 82 -122 89 -264 210 -311 264 -52 59 -58 85 -32 140 51 104 224 180 530 233 167 30 281 39 599 52 421 18 683 -3 896 -72 166 -53 275 -146 261 -222 -27 -142 -320 -364 -806 -611 -204 -104 -387 -188 -800 -368 -517 -225 -705 -311 -921 -419 -249 -125 -336 -180 -345 -216 -18 -69 192 -183 569 -307 261 -87 863 -251 1597 -437 319 -81 328 -82 470 -87 l145 -4 145 41 c206 59 187 44 195 153 4 51 13 154 21 228 16 160 18 398 4 507 -24 179 -93 508 -111 527 -12 14 -137 -10 -274 -51 -148 -44 -225 -77 -225 -96 0 -8 7 -34 15 -58 24 -66 71 -261 91 -374 13 -72 18 -153 18 -285 1 -209 -10 -270 -47 -270 -39 0 -1233 319 -1496 399 -373 115 -581 185 -581 198 0 21 515 260 1201 559 545 236 736 322 967 435 269 130 398 208 489 294 l73 70 88 0 c75 0 95 4 144 28 98 48 172 153 183 259 7 66 -9 99 -55 115 -43 15 -180 16 -238 2 -43 -9 -45 -9 -83 30 -90 94 -333 178 -654 228 -95 14 -662 27 -770 17z" id="svg_3" fill="#ffffff" fill-opacity="1"/>
<path d="M3490 2073 c-102 -30 -191 -60 -198 -67 -16 -15 12 -308 58 -596 16 -102 45 -306 65 -455 20 -148 38 -281 41 -294 5 -23 7 -24 71 -18 61 6 297 79 409 127 38 17 44 23 44 49 0 17 -36 272 -80 568 -72 492 -78 544 -69 604 24 157 -38 172 -341 82z" id="svg_4" fill="#ffffff" fill-opacity="1"/>
</g></g></svg>